<svg width="32" height="32" viewBox="0 0 32 32" fill="none" xmlns="http://www.w3.org/2000/svg">
<path d="M21.5 22.4996V25.2596C21.5002 25.7884 21.3607 26.3078 21.0955 26.7653C20.8303 27.2228 20.4489 27.602 19.99 27.8646L18 28.9996L17 26.9996L18.87 26.2496C19.0553 26.1759 19.2143 26.0484 19.3265 25.8835C19.4388 25.7187 19.4992 25.5241 19.5 25.3246V23.4996L19.47 23.4746C19.7583 23.1883 19.9937 22.8531 20.165 22.4846C20.275 22.4896 20.385 22.4996 20.5 22.4996C20.8251 22.4999 21.1491 22.4613 21.465 22.3846L21.5 22.4996Z" fill="#CC7400"/>
<path d="M14.595 25.97L17 27L18 29V31.5H15V28L13.32 27.28C12.7809 27.0471 12.3215 26.6619 11.9982 26.1716C11.6749 25.6813 11.5018 25.1073 11.5 24.52V23L11.505 22.96C11.6684 22.9886 11.8341 23.002 12 23C12.519 22.999 13.0313 22.8829 13.5 22.66V24.84C13.5006 25.0356 13.5582 25.2267 13.6656 25.39C13.7731 25.5534 13.9257 25.682 14.105 25.76L14.595 25.97Z" fill="#CC7400"/>
<path d="M13.4402 14.324C12.9589 14.7825 12.6425 15.3872 12.5402 16.044C12.3615 16.0164 12.181 16.0014 12.0002 15.999C11.2499 15.9984 10.5192 16.2389 9.91599 16.6852C9.31276 17.1314 8.86888 17.7596 8.64984 18.4772C8.43079 19.1949 8.44817 19.9639 8.69941 20.6709C8.95064 21.378 9.42243 21.9855 10.0452 22.404L10.0002 22.499C9.63145 22.9913 9.09358 23.3297 8.4902 23.449C8.32918 23.4835 8.16487 23.5002 8.0002 23.499C7.49255 23.498 6.99723 23.3425 6.58012 23.0531C6.16302 22.7637 5.8439 22.3542 5.6652 21.879C5.45152 21.9548 5.22691 21.9954 5.0002 21.999C4.46977 21.999 3.96106 21.7883 3.58599 21.4132C3.21092 21.0382 3.0002 20.5295 3.0002 19.999C3.0002 19.929 3.0152 19.864 3.0202 19.799C2.56923 19.6069 2.18469 19.2865 1.9144 18.8775C1.64411 18.4686 1.5 17.9892 1.5 17.499C1.5 17.0088 1.64411 16.5295 1.9144 16.1205C2.18469 15.7116 2.56923 15.3911 3.0202 15.199C3.0152 15.134 3.0002 15.069 3.0002 14.999C2.99682 14.5702 3.10464 14.1479 3.31314 13.7732C3.52165 13.3986 3.82372 13.0843 4.18988 12.8612C4.55604 12.6381 4.97379 12.5137 5.40236 12.5002C5.83094 12.4866 6.2557 12.5844 6.6352 12.784C6.7801 12.4067 7.03579 12.082 7.36865 11.8526C7.70151 11.6233 8.09598 11.5 8.5002 11.499L8.5402 11.494C8.65725 12.3281 9.07198 13.0917 9.70788 13.644C10.3438 14.1963 11.158 14.5 12.0002 14.499C12.4545 14.4983 12.9043 14.41 13.3252 14.239C13.3614 14.2701 13.3998 14.2985 13.4402 14.324Z" fill="#41C48B"/>
<path d="M26 7.99998C26.0004 8.52048 25.8843 9.03446 25.6602 9.50425C25.4361 9.97404 25.1098 10.3877 24.705 10.715C24.3195 10.5717 23.9113 10.4989 23.5 10.5C22.5717 10.5 21.6815 10.8687 21.0251 11.5251C20.3687 12.1815 20 13.0717 20 14C20.0024 14.1775 20.0174 14.3546 20.045 14.53C19.3851 14.6024 18.7541 14.8397 18.21 15.22C18.0086 14.7909 17.708 14.4159 17.3332 14.1258C16.9584 13.8357 16.52 13.6388 16.0541 13.5514C15.5883 13.464 15.1083 13.4885 14.6538 13.623C14.1993 13.7575 13.7833 13.9981 13.44 14.325C13.3996 14.2995 13.3612 14.2711 13.325 14.24C12.9041 14.411 12.4543 14.4992 12 14.5C11.1578 14.5009 10.3436 14.1972 9.70768 13.6449C9.07177 13.0927 8.65705 12.3291 8.54 11.495C8.51139 11.3316 8.498 11.1659 8.5 11C8.5007 10.8309 8.51407 10.6621 8.54 10.495C8.525 10.495 8.515 10.5 8.5 10.5C7.83696 10.5 7.20107 10.2366 6.73223 9.76775C6.26339 9.29891 6 8.66302 6 7.99998C6 7.33694 6.26339 6.70105 6.73223 6.23221C7.20107 5.76337 7.83696 5.49998 8.5 5.49998C8.52 5.49998 8.535 5.50498 8.55 5.50498C8.51802 5.33852 8.50129 5.16948 8.5 4.99998C8.5 4.33694 8.76339 3.70105 9.23223 3.23221C9.70107 2.76337 10.337 2.49998 11 2.49998C11.3427 2.49952 11.6817 2.57106 11.995 2.70998C12.4545 1.93587 13.1952 1.36906 14.0625 1.12778C14.9298 0.886502 15.8567 0.989389 16.65 1.41498C17.1505 0.957376 17.7734 0.655357 18.4426 0.54578C19.1118 0.436203 19.7985 0.523808 20.4188 0.797903C21.0391 1.072 21.5662 1.52073 21.9358 2.08934C22.3053 2.65794 22.5014 3.32183 22.5 3.99998C22.4995 4.16743 22.4861 4.33459 22.46 4.49998H22.5C23.4283 4.49998 24.3185 4.86873 24.9749 5.52511C25.6313 6.18148 26 7.07172 26 7.99998Z" fill="#A0E897"/>
<path d="M15.9999 24.3543C15.5272 24.2108 15.0899 23.9698 14.7161 23.6468C14.3423 23.3239 14.0404 22.9261 13.8299 22.4793C13.7232 22.5452 13.6131 22.6053 13.4999 22.6593C13.0312 22.8821 12.5189 22.9982 11.9999 22.9993C11.834 23.0013 11.6683 22.9879 11.5049 22.9593C10.9813 22.8921 10.4809 22.7019 10.0449 22.4043C9.42213 21.9858 8.95034 21.3782 8.6991 20.6712C8.44787 19.9642 8.43049 19.1951 8.64954 18.4775C8.86858 17.7599 9.31245 17.1316 9.91568 16.6854C10.5189 16.2392 11.2496 15.9987 11.9999 15.9993C12.1807 16.0016 12.3612 16.0167 12.5399 16.0443C12.6422 15.3874 12.9586 14.7828 13.4399 14.3243C13.7832 13.9974 14.1992 13.7568 14.6537 13.6223C15.1082 13.4878 15.5882 13.4633 16.054 13.5507C16.5199 13.6381 16.9583 13.835 17.3331 14.1251C17.7079 14.4152 18.0085 14.7902 18.2099 15.2193C18.754 14.8389 19.385 14.6017 20.0449 14.5293C20.0173 14.3539 20.0023 14.1768 19.9999 13.9993C19.9999 13.071 20.3686 12.1808 21.025 11.5244C21.6814 10.868 22.5716 10.4993 23.4999 10.4993C23.9112 10.4982 24.3194 10.571 24.7049 10.7143C24.7919 10.7441 24.8771 10.7791 24.9599 10.8193C25.379 10.5966 25.8487 10.4863 26.3231 10.4989C26.7975 10.5115 27.2606 10.6467 27.6673 10.8914C28.074 11.136 28.4105 11.4817 28.644 11.8949C28.8775 12.3081 29.0001 12.7747 28.9999 13.2493C28.9989 13.8185 28.8225 14.3737 28.4949 14.8393C28.9781 15.0659 29.4031 15.4001 29.7373 15.8162C30.0715 16.2324 30.3062 16.7194 30.4232 17.2401C30.5403 17.7609 30.5368 18.3015 30.4129 18.8206C30.2889 19.3398 30.0479 19.8237 29.7083 20.2354C29.3686 20.6471 28.9393 20.9756 28.4531 21.1959C27.967 21.4162 27.4369 21.5224 26.9034 21.5064C26.3699 21.4904 25.8471 21.3525 25.3751 21.1034C24.9031 20.8544 24.4942 20.5006 24.1799 20.0693C24.0108 20.4594 23.7813 20.8205 23.4999 21.1393C22.9652 21.753 22.2548 22.1876 21.4649 22.3843C21.149 22.4609 20.825 22.4995 20.4999 22.4993C20.3849 22.4993 20.2749 22.4893 20.1649 22.4843C19.883 23.0859 19.4357 23.5949 18.8752 23.9517C18.3148 24.3085 17.6643 24.4984 16.9999 24.4993C16.6613 24.4995 16.3245 24.4506 15.9999 24.3543Z" fill="#62D2A2"/>
<path d="M27.0005 18.9997C26.4512 18.9993 25.9097 18.8697 25.4198 18.6213C24.9299 18.3729 24.5054 18.0126 24.1805 17.5697C24.0114 17.9598 23.782 18.3209 23.5005 18.6397C22.9658 19.2535 22.2554 19.6881 21.4655 19.8847C21.1496 19.9613 20.8256 19.9999 20.5005 19.9997C20.3855 19.9997 20.2755 19.9897 20.1655 19.9847C19.8836 20.5863 19.4363 21.0953 18.8758 21.4521C18.3154 21.8089 17.6649 21.9989 17.0005 21.9997C16.3345 22.0005 15.6821 21.8108 15.1204 21.4528C14.5587 21.0949 14.1111 20.5837 13.8305 19.9797C13.7238 20.0456 13.6137 20.1057 13.5005 20.1597C13.0318 20.3825 12.5195 20.4986 12.0005 20.4997C11.8346 20.5017 11.6689 20.4883 11.5055 20.4597C10.9819 20.3925 10.4816 20.2023 10.0455 19.9047C9.4488 19.5026 8.99036 18.9265 8.73252 18.2547C8.44947 18.9929 8.42521 19.8054 8.66371 20.5592C8.9022 21.313 9.38935 21.9636 10.0455 22.4047C10.4816 22.7023 10.9819 22.8925 11.5055 22.9597C11.6689 22.9883 11.8346 23.0017 12.0005 22.9997C12.5195 22.9986 13.0318 22.8825 13.5005 22.6597C13.6137 22.6057 13.7238 22.5456 13.8305 22.4797C14.1111 23.0837 14.5587 23.5949 15.1204 23.9528C15.6821 24.3108 16.3345 24.5005 17.0005 24.4997C17.6649 24.4989 18.3154 24.3089 18.8758 23.9521C19.4363 23.5953 19.8836 23.0863 20.1655 22.4847C20.2755 22.4897 20.3855 22.4997 20.5005 22.4997C20.8256 22.4999 21.1496 22.4613 21.4655 22.3847C22.2554 22.1881 22.9658 21.7535 23.5005 21.1397C23.782 20.8209 24.0114 20.4598 24.1805 20.0697C24.6784 20.7571 25.4096 21.2397 26.2374 21.4272C27.0652 21.6147 27.933 21.4942 28.6784 21.0884C29.4239 20.6825 29.996 20.019 30.2878 19.222C30.5797 18.425 30.5712 17.5489 30.264 16.7577C30.0107 17.4176 29.5631 17.9852 28.9804 18.3855C28.3978 18.7858 27.7074 18.9999 27.0005 18.9997Z" fill="#86DB7B"/>
<path d="M28.5069 14.8456L28.4844 14.8491C28.3798 15.5404 28.0226 16.1684 27.4819 16.6117C26.9411 17.055 26.2553 17.2821 25.5569 17.2491C25.1071 17.255 24.6616 17.162 24.2518 16.9767C23.842 16.7913 23.4779 16.5182 23.1854 16.1766C23.0399 16.4736 22.8467 16.7447 22.6134 16.9791C22.1453 17.4492 21.551 17.7737 20.9024 17.9131C20.6357 17.9704 20.3637 17.9992 20.0909 17.9991C19.9939 17.9991 19.9014 17.9916 19.8089 17.9876C19.6614 18.2688 19.4634 18.5205 19.2249 18.7301C18.6512 19.2328 17.9126 19.5065 17.1499 19.4991C16.8662 19.4994 16.5836 19.4628 16.3094 19.3901C15.9252 19.293 15.565 19.1182 15.2511 18.8763C14.9372 18.6345 14.6762 18.3308 14.4844 17.9841C14.3959 18.0341 14.3034 18.0776 14.2069 18.1191C13.8075 18.2872 13.3787 18.3738 12.9454 18.3741C12.8061 18.3756 12.667 18.3656 12.5294 18.3441C12.0948 18.2956 11.6758 18.1535 11.3014 17.9276C10.7649 17.6131 10.355 17.1214 10.1424 16.5371C9.49952 16.9412 9.00537 17.5433 8.73438 18.2526C8.99221 18.9244 9.45065 19.5005 10.0474 19.9026C10.4834 20.2002 10.9837 20.3904 11.5074 20.4576C11.6699 20.4865 11.8348 20.5004 11.9999 20.4991C12.5189 20.498 13.0312 20.3819 13.4999 20.1591C13.613 20.1051 13.7232 20.045 13.8299 19.9791C14.1105 20.5831 14.558 21.0943 15.1197 21.4522C15.6814 21.8102 16.3338 21.9999 16.9999 21.9991C17.6643 21.9983 18.3147 21.8083 18.8752 21.4515C19.4357 21.0947 19.883 20.5857 20.1649 19.9841C20.2749 19.9891 20.3849 19.9991 20.4999 19.9991C20.825 19.9993 21.1489 19.9607 21.4649 19.8841C22.2548 19.6875 22.9652 19.2528 23.4999 18.6391C23.7813 18.3203 24.0108 17.9592 24.1799 17.5691C24.5506 18.0754 25.0509 18.4725 25.628 18.7188C26.2052 18.9651 26.838 19.0515 27.4601 18.9689C28.0822 18.8863 28.6705 18.6378 29.1634 18.2494C29.6563 17.861 30.0356 17.3471 30.2614 16.7616C29.9454 15.9207 29.3168 15.2342 28.5069 14.8456Z" fill="#A0E897"/>
<path d="M15.5002 24.1561V25.1406L14.4367 25.4966C14.37 25.5191 14.3088 25.5555 14.2571 25.6033C14.2054 25.6512 14.1644 25.7094 14.1367 25.7741L14.5947 25.9706L15.2862 26.2666L16.1582 25.9746C16.2577 25.9415 16.3443 25.8779 16.4057 25.7928C16.4671 25.7077 16.5001 25.6055 16.5002 25.5006V24.4646C16.1522 24.4176 15.8143 24.3134 15.5002 24.1561Z" fill="#AA6100"/>
<path d="M17.82 30.5C17.5887 30.5001 17.3646 30.4201 17.1857 30.2735C17.0069 30.1269 16.8843 29.9228 16.839 29.696L16.5 28L12.8845 26.192C12.769 26.1344 12.6719 26.0457 12.604 25.9359C12.5361 25.8261 12.5001 25.6996 12.5 25.5705V25.1955C12.5 25.0111 12.5733 24.8342 12.7037 24.7037C12.8341 24.5733 13.011 24.5 13.1955 24.5H13.5V22.66C13.0313 22.8829 12.519 22.999 12 23C11.8341 23.002 11.6684 22.9886 11.505 22.96L11.5 23V24.52C11.5018 25.1073 11.6749 25.6813 11.9982 26.1716C12.3215 26.6619 12.7809 27.0471 13.32 27.28L15 28V31.5H17.9941V30.5H17.82Z" fill="#AA6100"/>
<path d="M21.465 22.3846C21.1491 22.4613 20.8251 22.4999 20.5 22.4996C20.385 22.4996 20.275 22.4896 20.165 22.4846C19.9937 22.8531 19.7583 23.1883 19.47 23.4746L19.5 23.4996V25.3246C19.4992 25.5241 19.4388 25.7187 19.3265 25.8835C19.2143 26.0484 19.0553 26.1759 18.87 26.2496L17 26.9996L18 28.9996L19.087 28.3796L19.0245 28.2866C18.8828 28.0739 18.828 27.815 18.8712 27.5631C18.9144 27.3112 19.0525 27.0854 19.257 26.9321L19.9 26.4496C20.0863 26.3099 20.2375 26.1287 20.3416 25.9205C20.4458 25.7122 20.5 25.4825 20.5 25.2496V24.4996C20.5 24.2344 20.6054 23.9801 20.7929 23.7925C20.9804 23.605 21.2348 23.4996 21.5 23.4996V22.4996L21.465 22.3846Z" fill="#AA6100"/>
<path d="M26.25 10.5C25.8002 10.4991 25.3572 10.609 24.96 10.82C24.8772 10.7798 24.792 10.7448 24.705 10.715C24.3195 10.5717 23.9113 10.4989 23.5 10.5C22.5717 10.5 21.6815 10.8687 21.0251 11.5251C20.3687 12.1815 20 13.0717 20 14C20.0024 14.1775 20.0174 14.3546 20.045 14.53C19.3851 14.6024 18.7541 14.8396 18.21 15.22C17.9362 14.6397 17.4832 14.1626 16.9179 13.8591C16.3525 13.5556 15.7047 13.4417 15.0697 13.5341C14.4347 13.6265 13.8462 13.9203 13.3908 14.3723C12.9353 14.8244 12.6371 15.4107 12.54 16.045L12.5 16.04V17.54L12.54 17.545C12.6423 16.8881 12.9587 16.2835 13.44 15.825C13.7833 15.4981 14.1993 15.2575 14.6538 15.123C15.1083 14.9885 15.5883 14.964 16.0541 15.0514C16.52 15.1388 16.9584 15.3357 17.3332 15.6258C17.708 15.9159 18.0086 16.2909 18.21 16.72C18.7541 16.3396 19.3851 16.1024 20.045 16.03C20.0174 15.8546 20.0024 15.6775 20 15.5C20 14.5717 20.3687 13.6815 21.0251 13.0251C21.6815 12.3687 22.5717 12 23.5 12C23.9113 11.9989 24.3195 12.0717 24.705 12.215C24.792 12.2448 24.8772 12.2798 24.96 12.32C25.3216 12.1282 25.7215 12.0196 26.1304 12.002C26.5393 11.9845 26.947 12.0584 27.3238 12.2185C27.7005 12.3786 28.0367 12.6207 28.3079 12.9273C28.5792 13.2338 28.7785 13.5971 28.8915 13.9905C29.0103 13.5821 29.032 13.1517 28.9548 12.7335C28.8777 12.3153 28.7039 11.921 28.4473 11.5819C28.1907 11.2428 27.8584 10.9684 27.4769 10.7805C27.0954 10.5927 26.6752 10.4966 26.25 10.5Z" fill="#41C48B"/>
<path d="M22.0412 9.20032C21.4691 8.76789 20.8046 8.47391 20.0999 8.34145C19.3951 8.209 18.6692 8.24166 17.9792 8.43689C17.2891 8.63212 16.6537 8.9846 16.1228 9.46666C15.5919 9.94873 15.1799 10.5473 14.9192 11.2153C14.9382 10.5423 14.2012 10.1153 13.5452 9.96232C12.5087 9.72861 11.4268 9.79804 10.4287 10.1623C10.2149 10.2647 9.99102 10.3447 9.7607 10.4008C9.5037 10.4373 9.2382 10.4058 8.9777 10.4508C8.82814 10.4776 8.68037 10.5135 8.5352 10.5583C8.51378 10.7047 8.50209 10.8524 8.5002 11.0003C8.49819 11.1662 8.51158 11.3319 8.5402 11.4953C8.65724 12.3294 9.07197 13.093 9.70787 13.6453C10.3438 14.1976 11.1579 14.5013 12.0002 14.5003C12.4545 14.4996 12.9043 14.4113 13.3252 14.2403C13.3614 14.2714 13.3998 14.2998 13.4402 14.3253C13.7835 13.9985 14.1995 13.7579 14.654 13.6234C15.1085 13.4889 15.5885 13.4643 16.0543 13.5517C16.5202 13.6391 16.9586 13.836 17.3334 14.1261C17.7082 14.4162 18.0088 14.7913 18.2102 15.2203C18.7543 14.84 19.3853 14.6027 20.0452 14.5303C20.0176 14.355 20.0026 14.1778 20.0002 14.0003C20.0002 13.0721 20.3689 12.1818 21.0253 11.5254C21.6817 10.8691 22.5719 10.5003 23.5002 10.5003C23.9115 10.4992 24.3196 10.5721 24.7052 10.7153C25.3601 10.1833 25.8 9.43187 25.9432 8.60032C25.2976 8.34749 24.5967 8.26982 23.9114 8.37519C23.2262 8.48056 22.581 8.76522 22.0412 9.20032Z" fill="#62D2A2"/>
<path d="M25.0439 5.60003C24.8789 5.60003 24.7139 5.59253 24.5484 5.60353C23.4565 5.63879 22.4203 6.09409 21.6559 6.87453C21.2926 6.51326 20.8587 6.23083 20.3814 6.04491C19.904 5.85898 19.3934 5.77355 18.8815 5.79396C18.3695 5.81438 17.8674 5.9402 17.4063 6.16355C16.9452 6.3869 16.5352 6.70299 16.2019 7.09203C15.8246 6.7777 15.3841 6.54832 14.9103 6.41951C14.4365 6.2907 13.9404 6.26547 13.456 6.34556C12.9715 6.42565 12.51 6.60916 12.1028 6.88361C11.6957 7.15807 11.3524 7.51701 11.0964 7.93603C10.8157 7.69614 10.4905 7.51397 10.1393 7.39994C9.78815 7.28592 9.41794 7.24228 9.04988 7.27153C8.31299 7.33484 7.60585 7.59148 6.99988 8.01553C6.68547 8.23159 6.39395 8.47921 6.12988 8.75453C6.28854 9.25934 6.60371 9.70058 7.02979 10.0144C7.45586 10.3282 7.97073 10.4983 8.49988 10.5C8.51488 10.5 8.52488 10.495 8.53988 10.495C8.53688 10.5155 8.53988 10.5365 8.53488 10.557C8.68005 10.5122 8.82783 10.4763 8.97738 10.4495C9.23788 10.4045 9.50338 10.436 9.76038 10.3995C9.99071 10.3434 10.2146 10.2634 10.4284 10.161C11.4265 9.79675 12.5084 9.72732 13.5449 9.96103C14.2009 10.111 14.9379 10.541 14.9189 11.214C15.1797 10.5461 15.5918 9.94762 16.1227 9.46566C16.6537 8.9837 17.2891 8.63134 17.9791 8.43621C18.6691 8.24108 19.395 8.2085 20.0997 8.34103C20.8044 8.47355 21.4689 8.76758 22.0409 9.20003C22.5805 8.76529 23.2253 8.48084 23.9102 8.37547C24.595 8.27011 25.2956 8.34758 25.9409 8.60003C26.0398 8.06444 26.0098 7.51299 25.8533 6.9913C25.6968 6.46962 25.4183 5.99271 25.0409 5.60003H25.0439Z" fill="#41C48B"/>
<path d="M4.0407 20.419C4.14828 19.9663 4.28507 19.521 4.4502 19.086C4.18044 19.0205 3.94288 18.8609 3.7802 18.636C3.57906 18.3849 3.44451 18.0871 3.38901 17.7702C3.33351 17.4533 3.35886 17.1275 3.4627 16.823C3.57744 16.5176 3.77691 16.2514 4.0377 16.0555C4.16629 15.9574 4.30844 15.8786 4.4597 15.8215C4.5597 15.784 4.8687 15.7675 4.9037 15.679C4.9347 15.6005 4.6897 15.251 4.6537 15.167C4.56285 14.9705 4.48599 14.7678 4.4237 14.5605C4.29618 14.1504 4.25231 13.7189 4.2947 13.2915C4.3169 13.1091 4.35847 12.9296 4.4187 12.756C3.99493 12.9585 3.63695 13.2765 3.386 13.6735C3.13504 14.0705 3.00131 14.5303 3.0002 15C3.0002 15.07 3.0152 15.135 3.0202 15.2C2.56923 15.3921 2.18469 15.7125 1.9144 16.1215C1.64411 16.5304 1.5 17.0098 1.5 17.5C1.5 17.9902 1.64411 18.4695 1.9144 18.8785C2.18469 19.2874 2.56923 19.6079 3.0202 19.8C3.0152 19.865 3.0002 19.93 3.0002 20C3.00018 20.3413 3.08786 20.6769 3.25483 20.9746C3.42179 21.2723 3.66245 21.522 3.9537 21.7C3.92421 21.271 3.95348 20.84 4.0407 20.419Z" fill="#A0E897"/>
<path d="M6.92726 20.6098C6.5274 19.7353 6.36379 18.7713 6.45276 17.8138C6.51304 17.3367 6.67099 16.8772 6.91676 16.4638C7.03985 16.2575 7.18724 16.0666 7.35576 15.8953C7.52949 15.7347 7.71686 15.5895 7.91576 15.4613C7.71837 15.2447 7.55501 14.9994 7.43126 14.7338C7.35176 14.5778 7.28526 14.4158 7.21926 14.2538C7.01526 13.7568 6.81226 13.2538 6.65576 12.7428C6.64926 12.7578 6.64076 12.7718 6.63476 12.7868C6.2944 12.6047 5.91524 12.507 5.52924 12.502C5.14323 12.4971 4.76169 12.585 4.41676 12.7583C4.35653 12.9319 4.31496 13.1114 4.29276 13.2938C4.25037 13.7212 4.29424 14.1527 4.42176 14.5628C4.48405 14.7701 4.56091 14.9728 4.65176 15.1693C4.69026 15.2533 4.93526 15.6028 4.90176 15.6813C4.86676 15.7698 4.55776 15.7863 4.45776 15.8238C4.3065 15.881 4.16435 15.9598 4.03576 16.0578C3.77497 16.2537 3.5755 16.52 3.46076 16.8253C3.35692 17.1298 3.33157 17.4556 3.38707 17.7725C3.44257 18.0894 3.57712 18.3872 3.77826 18.6383C3.94094 18.8633 4.1785 19.0228 4.44826 19.0883C4.28279 19.5233 4.14567 19.9686 4.03776 20.4213C3.9516 20.8417 3.92317 21.2718 3.95326 21.6998C4.26728 21.8955 4.62977 21.9994 4.99976 21.9998C5.22647 21.9962 5.45108 21.9556 5.66476 21.8798C5.69426 21.9568 5.73276 22.0298 5.76876 22.1018C5.97236 21.4863 6.38139 20.9595 6.92726 20.6098Z" fill="#62D2A2"/>
<path d="M7 8.01548C7.45967 7.70185 7.97353 7.4762 8.5155 7.34998C8.55208 6.7154 8.82962 6.11874 9.29141 5.68195C9.7532 5.24516 10.3644 5.00122 11 4.99998C11.3427 4.99952 11.6817 5.07106 11.995 5.20998C12.4545 4.43587 13.1952 3.86906 14.0625 3.62778C14.9298 3.3865 15.8567 3.48939 16.65 3.91498C17.0443 3.55371 17.5163 3.2879 18.0296 3.13806C18.543 2.98822 19.0839 2.95837 19.6106 3.05081C20.1373 3.14325 20.6357 3.35551 21.0674 3.67119C21.499 3.98688 21.8523 4.39755 22.1 4.87148C22.344 4.65498 22.5 4.49998 22.5 4.49998H22.46C22.4861 4.33459 22.4995 4.16743 22.5 3.99998C22.5014 3.32183 22.3053 2.65794 21.9358 2.08934C21.5662 1.52073 21.0391 1.072 20.4188 0.797903C19.7985 0.523808 19.1118 0.436203 18.4426 0.54578C17.7734 0.655357 17.1505 0.957376 16.65 1.41498C15.8567 0.989389 14.9298 0.886502 14.0625 1.12778C13.1952 1.36906 12.4545 1.93587 11.995 2.70998C11.6817 2.57106 11.3427 2.49952 11 2.49998C10.337 2.49998 9.70107 2.76337 9.23223 3.23221C8.76339 3.70105 8.5 4.33694 8.5 4.99998C8.50129 5.16948 8.51802 5.33852 8.55 5.50498C8.535 5.50498 8.52 5.49998 8.5 5.49998C7.83696 5.49998 7.20107 5.76337 6.73223 6.23221C6.26339 6.70105 6 7.33694 6 7.99998C6.00249 8.3759 6.09217 8.74611 6.262 9.08148C6.21003 8.97568 6.16542 8.86642 6.1285 8.75448C6.39304 8.47908 6.68506 8.23145 7 8.01548Z" fill="#86DB7B"/>
<path d="M15 9C15.5523 9 16 8.55228 16 8C16 7.44772 15.5523 7 15 7C14.4477 7 14 7.44772 14 8C14 8.55228 14.4477 9 15 9Z" fill="#FF7373"/>
<path d="M15.4215 8.90719C15.2936 8.96668 15.1508 9.00001 15.0003 9.00001C14.4478 9.00001 14 8.55225 14 8.00006C14 7.44759 14.4478 7.00012 15.0003 7.00012C15.1508 7.00012 15.2936 7.03342 15.4215 7.09294C15.0797 7.25184 14.8426 7.59811 14.8426 8.00006C14.8426 8.4017 15.0797 8.74832 15.4215 8.90719Z" fill="#EF5350"/>
<path d="M9 15C9.55228 15 10 14.5523 10 14C10 13.4477 9.55228 13 9 13C8.44772 13 8 13.4477 8 14C8 14.5523 8.44772 15 9 15Z" fill="#FF7373"/>
<path d="M9.42153 14.9072C9.29359 14.9667 9.15078 15 9.00026 15C8.44776 15 8 14.5523 8 14.0001C8 13.4476 8.44776 13.0001 9.00026 13.0001C9.15081 13.0001 9.29359 13.0334 9.42153 13.0929C9.07968 13.2518 8.84258 13.5981 8.84258 14.0001C8.84258 14.4017 9.07968 14.7483 9.42153 14.9072Z" fill="#EF5350"/>
<path d="M19 19C19.5523 19 20 18.5523 20 18C20 17.4477 19.5523 17 19 17C18.4477 17 18 17.4477 18 18C18 18.5523 18.4477 19 19 19Z" fill="#FF7373"/>
<path d="M19.4215 18.9072C19.2936 18.9667 19.1508 19 19.0003 19C18.4478 19 18 18.5523 18 18.0001C18 17.4476 18.4478 17.0001 19.0003 17.0001C19.1508 17.0001 19.2936 17.0334 19.4215 17.0929C19.0797 17.2518 18.8426 17.5981 18.8426 18.0001C18.8426 18.4017 19.0797 18.7483 19.4215 18.9072Z" fill="#EF5350"/>
<path d="M22 12C22.5523 12 23 11.5523 23 11C23 10.4477 22.5523 10 22 10C21.4477 10 21 10.4477 21 11C21 11.5523 21.4477 12 22 12Z" fill="#FF7373"/>
<path d="M22.4215 11.9072C22.2936 11.9667 22.1508 12 22.0003 12C21.4478 12 21 11.5523 21 11.0001C21 10.4476 21.4478 10.0001 22.0003 10.0001C22.1508 10.0001 22.2936 10.0334 22.4215 10.0929C22.0797 10.2518 21.8426 10.5981 21.8426 11.0001C21.8426 11.4017 22.0797 11.7483 22.4215 11.9072Z" fill="#EF5350"/>
<path d="M24 16C24.5523 16 25 15.5523 25 15C25 14.4477 24.5523 14 24 14C23.4477 14 23 14.4477 23 15C23 15.5523 23.4477 16 24 16Z" fill="#FF7373"/>
<path d="M24.4215 15.9072C24.2936 15.9667 24.1508 16 24.0003 16C23.4478 16 23 15.5523 23 15.0001C23 14.4476 23.4478 14.0001 24.0003 14.0001C24.1508 14.0001 24.2936 14.0334 24.4215 14.0929C24.0797 14.2518 23.8426 14.5981 23.8426 15.0001C23.8426 15.4017 24.0797 15.7483 24.4215 15.9072Z" fill="#EF5350"/>
<path d="M15 16C15.5523 16 16 15.5523 16 15C16 14.4477 15.5523 14 15 14C14.4477 14 14 14.4477 14 15C14 15.5523 14.4477 16 15 16Z" fill="#FF7373"/>
<path d="M15.4215 15.9072C15.2936 15.9667 15.1508 16 15.0003 16C14.4478 16 14 15.5523 14 15.0001C14 14.4476 14.4478 14.0001 15.0003 14.0001C15.1508 14.0001 15.2936 14.0334 15.4215 14.0929C15.0797 14.2518 14.8426 14.5981 14.8426 15.0001C14.8426 15.4017 15.0797 15.7483 15.4215 15.9072Z" fill="#EF5350"/>
<path d="M7 20C7.55228 20 8 19.5523 8 19C8 18.4477 7.55228 18 7 18C6.44772 18 6 18.4477 6 19C6 19.5523 6.44772 20 7 20Z" fill="#FF7373"/>
<path d="M7.42153 19.9072C7.29359 19.9667 7.15078 20 7.00026 20C6.44776 20 6 19.5523 6 19.0001C6 18.4476 6.44776 18.0001 7.00026 18.0001C7.15081 18.0001 7.29359 18.0334 7.42153 18.0929C7.07968 18.2518 6.84258 18.5981 6.84258 19.0001C6.84258 19.4017 7.07968 19.7483 7.42153 19.9072Z" fill="#EF5350"/>
</svg>
