<svg width="32" height="32" viewBox="0 0 32 32" fill="none" xmlns="http://www.w3.org/2000/svg">
<path d="M17.682 13.2081C17.4406 13.4629 17.0992 13.5972 16.7482 13.5754C16.6267 13.5677 13.7401 13.3693 10.7876 11.7783C7.99758 10.2748 4.63071 7.22405 4.43521 1.22806C4.42446 0.901061 4.54965 0.584311 4.7809 0.352937C5.13365 0 5.54765 0 5.72446 0C5.84952 0 8.78983 0.0211249 11.8194 1.83768C13.3921 2.78074 14.6996 4.03443 15.7057 5.56405C16.9211 7.41192 17.6923 9.66336 17.9981 12.2557C18.0392 12.6044 17.9234 12.9532 17.682 13.2081Z" fill="#62D2A2"/>
<path d="M15.7433 5.62305C15.2472 6.53867 14.8287 7.56992 14.5285 8.73167C14.2585 9.53804 13.8462 10.9548 13.5059 12.915C15.3008 13.4767 16.666 13.5706 16.7487 13.5758C17.0999 13.5976 17.4411 13.4633 17.6825 13.2085C17.9239 12.9536 18.0397 12.6048 17.9985 12.2562C17.696 9.69085 16.9368 7.45998 15.7433 5.62305Z" fill="#43B785"/>
<path d="M16.6671 11.1784L14.1178 8.69246L13.4456 5.34259C13.3924 5.07709 13.1341 4.90528 12.8685 4.95841C12.603 5.01166 12.4311 5.27009 12.4843 5.53547L12.8746 7.48021L11.4687 6.10922L10.7872 2.71328C10.734 2.44779 10.4756 2.27616 10.2101 2.3291C9.94464 2.38235 9.77277 2.64072 9.82595 2.90616L10.2255 4.89691L6.94471 1.69791C6.75071 1.50891 6.44059 1.51291 6.25152 1.70666C6.06252 1.90054 6.06646 2.21085 6.26027 2.39979L9.8677 5.91753L7.35121 5.87453C7.08077 5.86715 6.8574 6.08559 6.85271 6.35628C6.84815 6.62696 7.06377 6.85009 7.33446 6.85478L10.8911 6.91559L12.5646 8.54746L10.0096 8.5039C9.74133 8.4979 9.51577 8.71496 9.51108 8.98565C9.50652 9.25633 9.72214 9.47946 9.99283 9.48415L13.5879 9.54552L15.9824 11.8804C16.0778 11.9733 16.2012 12.0196 16.3245 12.0196C16.452 12.0196 16.5794 11.9701 16.6756 11.8716C16.8648 11.6776 16.8609 11.3673 16.6671 11.1784Z" fill="#41B583"/>
<path d="M29.239 0.369598C28.9976 0.114786 28.6563 -0.0194635 28.3052 0.00228648C28.1838 0.00997397 25.2972 0.208411 22.3447 1.79941C20.0758 3.02197 17.4259 5.26771 16.4096 9.28808C15.8545 10.9226 14.6317 15.3554 14.9177 22.0298C14.9425 22.6072 15.4184 23.0587 15.9909 23.0587C16.0064 23.0587 16.022 23.0584 16.0377 23.0577C16.6307 23.0322 17.0909 22.5309 17.0655 21.9377C16.9174 18.4801 17.202 15.6534 17.5689 13.5676C18.3945 13.5203 20.8543 13.2523 23.3764 11.74C24.9491 10.797 26.2566 9.54327 27.2627 8.01365C28.4781 6.16577 29.2493 3.91434 29.5551 1.32203C29.5962 0.973285 29.4804 0.624473 29.239 0.369598Z" fill="#A0E897"/>
<path d="M27.6952 1.70656C27.5061 1.51275 27.1958 1.50881 27.002 1.69781L23.7215 4.89674L24.121 2.90606C24.1742 2.64062 24.0024 2.38231 23.7369 2.329C23.4717 2.276 23.213 2.44769 23.1598 2.71319L22.4782 6.10912L21.0724 7.48011L21.4627 5.53537C21.5159 5.26993 21.344 5.01162 21.0785 4.95831C20.8131 4.90518 20.5547 5.07699 20.5014 5.34249L19.8291 8.69242L17.2798 11.1784C17.0859 11.3674 17.0821 11.6777 17.2711 11.8715C17.3672 11.97 17.4945 12.0194 17.6221 12.0194C17.7455 12.0194 17.869 11.9732 17.9642 11.8802L20.3587 9.54536L23.9539 9.48399C24.2246 9.47936 24.4402 9.25624 24.4357 8.98549C24.4311 8.71761 24.2125 8.50368 23.9457 8.50368C23.9429 8.50368 23.94 8.50367 23.9372 8.50374L21.3821 8.5473L23.0555 6.91543L26.6122 6.85462C26.8829 6.84999 27.0985 6.62687 27.094 6.35612C27.0894 6.08824 26.8708 5.8743 26.604 5.8743C26.6012 5.8743 26.5983 5.8743 26.5955 5.87437L24.079 5.91737L27.6864 2.39962C27.8803 2.21069 27.8842 1.90037 27.6952 1.70656Z" fill="#86DB7B"/>
<path d="M28.0741 25.6323C27.5797 25.6323 27.118 25.7715 26.7255 26.0127C26.1459 24.1163 24.3823 22.7368 22.2962 22.7368C22.0647 22.7368 21.8374 22.7543 21.6151 22.7871C20.6695 20.6238 18.5117 19.1113 15.9997 19.1113C13.4878 19.1113 11.33 20.6238 10.3844 22.7871C10.162 22.7543 9.93462 22.7368 9.70325 22.7368C7.61713 22.7368 5.85363 24.1163 5.27395 26.0127C4.88151 25.7715 4.41982 25.6323 3.92539 25.6323C2.5007 25.6323 1.3457 26.7873 1.3457 28.2119C1.3457 29.6366 2.5007 30.7916 3.92539 30.7916C4.68888 30.7916 5.37463 30.4597 5.84688 29.9326C6.67701 31.1783 8.094 31.9995 9.70319 31.9995C11.0064 31.9995 12.1832 31.4604 13.0247 30.5941C13.9057 31.0846 14.9197 31.3649 15.9997 31.3649C17.0797 31.3649 18.0937 31.0845 18.9748 30.5941C19.8164 31.4604 20.9931 31.9995 22.2963 31.9995C23.9055 31.9995 25.3225 31.1784 26.1526 29.9326C26.6249 30.4597 27.3107 30.7916 28.0741 30.7916C29.4988 30.7916 30.6538 29.6366 30.6538 28.2119C30.6538 26.7872 29.4988 25.6323 28.0741 25.6323Z" fill="#CC7400"/>
<path d="M19.3676 21.6194C19.9769 21.6194 20.5647 21.7096 21.1202 21.8751C20.0249 20.2108 18.1411 19.1113 15.9997 19.1113C13.4877 19.1113 11.33 20.6238 10.3844 22.7871C10.162 22.7543 9.93462 22.7368 9.70325 22.7368C7.61713 22.7368 5.85363 24.1163 5.27395 26.0127C4.88151 25.7715 4.41982 25.6323 3.92539 25.6323C2.5007 25.6323 1.3457 26.7873 1.3457 28.2119C1.3457 29.6366 2.5007 30.7916 3.92539 30.7916C4.68888 30.7916 5.37463 30.4597 5.84688 29.9326C6.67701 31.1783 8.094 31.9995 9.70319 31.9995C11.0064 31.9995 12.1832 31.4604 13.0247 30.5941C13.4089 30.808 13.8184 30.9818 14.2476 31.11C13.6119 30.1443 13.2409 28.9888 13.2409 27.7462C13.2409 24.3625 15.9839 21.6194 19.3676 21.6194Z" fill="#AA6100"/>
<path d="M18.4359 27.4245C19.0493 27.4245 19.5466 26.9272 19.5466 26.3138C19.5466 25.7004 19.0493 25.2031 18.4359 25.2031C17.8225 25.2031 17.3252 25.7004 17.3252 26.3138C17.3252 26.9272 17.8225 27.4245 18.4359 27.4245Z" fill="#AA6100"/>
<path d="M22.9144 30.0397C23.5278 30.0397 24.0251 29.5425 24.0251 28.929C24.0251 28.3156 23.5278 27.8184 22.9144 27.8184C22.301 27.8184 21.8037 28.3156 21.8037 28.929C21.8037 29.5425 22.301 30.0397 22.9144 30.0397Z" fill="#AA6100"/>
<path d="M22.2311 25.5559C22.4671 25.5559 22.6585 25.3646 22.6585 25.1285C22.6585 24.8925 22.4671 24.7012 22.2311 24.7012C21.9951 24.7012 21.8037 24.8925 21.8037 25.1285C21.8037 25.3646 21.9951 25.5559 22.2311 25.5559Z" fill="#AA6100"/>
<path d="M15.9996 29.7825C16.2357 29.7825 16.427 29.5911 16.427 29.3551C16.427 29.1191 16.2357 28.9277 15.9996 28.9277C15.7636 28.9277 15.5723 29.1191 15.5723 29.3551C15.5723 29.5911 15.7636 29.7825 15.9996 29.7825Z" fill="#AA6100"/>
<path d="M17.3248 23.9583C17.5609 23.9583 17.7522 23.7669 17.7522 23.5309C17.7522 23.2949 17.5609 23.1035 17.3248 23.1035C17.0888 23.1035 16.8975 23.2949 16.8975 23.5309C16.8975 23.7669 17.0888 23.9583 17.3248 23.9583Z" fill="#AA6100"/>
<path d="M26.5211 27.8508C26.7572 27.8508 26.9485 27.6595 26.9485 27.4235C26.9485 27.1874 26.7572 26.9961 26.5211 26.9961C26.2851 26.9961 26.0938 27.1874 26.0938 27.4235C26.0938 27.6595 26.2851 27.8508 26.5211 27.8508Z" fill="#AA6100"/>
<path d="M24.0257 20.9362C24.6391 20.9362 25.1364 20.4389 25.1364 19.8255C25.1364 19.2121 24.6391 18.7148 24.0257 18.7148C23.4123 18.7148 22.915 19.2121 22.915 19.8255C22.915 20.4389 23.4123 20.9362 24.0257 20.9362Z" fill="#CC7400"/>
<path d="M26.5221 22.7356C26.7581 22.7356 26.9495 22.5443 26.9495 22.3082C26.9495 22.0722 26.7581 21.8809 26.5221 21.8809C26.2861 21.8809 26.0947 22.0722 26.0947 22.3082C26.0947 22.5443 26.2861 22.7356 26.5221 22.7356Z" fill="#CC7400"/>
<path d="M26.5221 20.6809C26.7581 20.6809 26.9495 20.4896 26.9495 20.2535C26.9495 20.0175 26.7581 19.8262 26.5221 19.8262C26.2861 19.8262 26.0947 20.0175 26.0947 20.2535C26.0947 20.4896 26.2861 20.6809 26.5221 20.6809Z" fill="#CC7400"/>
<path d="M7.03354 20.5436C7.64695 20.5436 8.14422 20.0464 8.14422 19.433C8.14422 18.8195 7.64695 18.3223 7.03354 18.3223C6.42012 18.3223 5.92285 18.8195 5.92285 19.433C5.92285 20.0464 6.42012 20.5436 7.03354 20.5436Z" fill="#AA6100"/>
<path d="M5.18909 22.3079C5.42513 22.3079 5.61647 22.1165 5.61647 21.8805C5.61647 21.6445 5.42513 21.4531 5.18909 21.4531C4.95306 21.4531 4.76172 21.6445 4.76172 21.8805C4.76172 22.1165 4.95306 22.3079 5.18909 22.3079Z" fill="#AA6100"/>
</svg>
