<svg width="53" height="26" viewBox="0 0 53 26" fill="none" xmlns="http://www.w3.org/2000/svg">
<path d="M4.33166 9.29394C3.62391 9.41874 3.1197 9.73036 2.81902 10.2288C2.51834 10.7273 2.43769 11.3717 2.57707 12.1622C2.71807 12.9619 3.03347 13.5412 3.52326 13.9003C4.02225 14.2577 4.62562 14.3741 5.33336 14.2493C5.71022 14.1828 6.01841 14.0764 6.25795 13.9299C6.50667 13.7818 6.73918 13.6223 6.95547 13.4515C7.13442 13.5526 7.28146 13.6878 7.3966 13.857C7.51931 14.0155 7.60173 14.2142 7.64387 14.4532C7.71032 14.83 7.55564 15.189 7.17983 15.5301C6.81159 15.8604 6.20006 16.1009 5.34525 16.2516C4.72942 16.3602 4.13495 16.375 3.56186 16.296C2.98876 16.217 2.4684 16.0339 2.00076 15.7467C1.53151 15.4504 1.12877 15.0475 0.792544 14.5382C0.463892 14.018 0.231496 13.3719 0.0953554 12.5998C-0.0310604 11.8829 -0.031781 11.2338 0.0931937 10.6526C0.225739 10.0606 0.45181 9.54211 0.771405 9.09718C1.10019 8.65064 1.50953 8.28467 1.99941 7.99926C2.48929 7.71386 3.03296 7.51849 3.63041 7.41314C4.47603 7.26403 5.15294 7.28683 5.66114 7.48154C6.17853 7.67463 6.47531 7.98718 6.55148 8.41918C6.59362 8.65816 6.57034 8.87551 6.48165 9.07122C6.39295 9.26692 6.27939 9.42911 6.14096 9.55777C5.87443 9.44365 5.59356 9.35575 5.29837 9.29408C5.01237 9.23078 4.69013 9.23073 4.33166 9.29394Z" fill="url(#paint0_linear_742_6383)"/>
<path d="M7.67968 11.2625C7.55327 10.5455 7.55174 9.89186 7.67509 9.30147C7.80764 8.70946 8.03452 8.19559 8.35573 7.75986C8.68452 7.31332 9.09385 6.94734 9.58374 6.66194C10.0828 6.37492 10.6403 6.17711 11.2561 6.06852C11.8719 5.95994 12.4588 5.95596 13.0168 6.0566C13.5839 6.15562 14.0983 6.35872 14.56 6.66588C15.0201 6.96385 15.409 7.36913 15.7269 7.88173C16.0539 8.3927 16.2806 9.00666 16.4071 9.7236C16.5335 10.4405 16.5358 11.0988 16.4141 11.6984C16.2907 12.2888 16.0646 12.8072 15.7359 13.2538C15.4146 13.6895 15.0045 14.0509 14.5054 14.3379C14.0064 14.6249 13.4443 14.8236 12.8193 14.9338C12.1943 15.044 11.5982 15.0496 11.031 14.9505C10.4623 14.8423 9.95163 14.6338 9.49914 14.3251C9.04664 14.0163 8.66148 13.6056 8.34364 13.093C8.0258 12.5804 7.80448 11.9702 7.67968 11.2625ZM10.1614 10.8249C10.3089 11.6613 10.5891 12.2563 11.0022 12.61C11.4152 12.9637 11.9066 13.0902 12.4765 12.9898C13.0556 12.8876 13.4787 12.5998 13.7458 12.1262C14.013 11.6526 14.0728 10.9976 13.9253 10.1612C13.7795 9.33395 13.5 8.74351 13.087 8.38986C12.6832 8.03458 12.1917 7.908 11.6127 8.0101C11.0428 8.11059 10.6197 8.39843 10.3433 8.87364C10.0746 9.33803 10.0139 9.98845 10.1614 10.8249Z" fill="url(#paint1_linear_742_6383)"/>
<path d="M23.7432 10.6335C23.6416 10.7557 23.4999 10.866 23.3182 10.9643C23.1441 11.0519 22.933 11.1176 22.6848 11.1613C22.3539 11.2197 22.0709 11.2269 21.8357 11.1831C21.6097 11.1377 21.4467 11.0195 21.3467 10.8286C20.9467 10.0651 20.6203 9.44983 20.3673 8.98266C20.1127 8.50629 19.9062 8.08779 19.7479 7.72714L19.6789 7.7393C19.747 8.28646 19.8115 8.78686 19.8725 9.24048C19.9411 9.6833 20.0081 10.1169 20.0735 10.5414C20.148 10.9642 20.2142 11.3932 20.272 11.8284C20.339 12.2621 20.4049 12.7433 20.4697 13.272C20.3583 13.3391 20.2085 13.4034 20.0204 13.465C19.8338 13.5358 19.644 13.5882 19.451 13.6222C19.0466 13.6936 18.7181 13.6851 18.4657 13.597C18.2224 13.5072 18.0708 13.2923 18.0108 12.9522L17.1708 5.85013C17.2232 5.71768 17.3614 5.56063 17.5853 5.379C17.8091 5.19737 18.1462 5.06685 18.5966 4.98743C19.0838 4.90153 19.479 4.9124 19.7823 5.02004C20.084 5.11848 20.3291 5.3264 20.5178 5.6438C20.6394 5.84981 20.7713 6.08718 20.9135 6.35591C21.0648 6.62302 21.2132 6.90013 21.3586 7.18724C21.5132 7.47274 21.6632 7.75904 21.8086 8.04615C21.9523 8.32408 22.0821 8.57604 22.1977 8.80206L22.2667 8.7899C22.3511 7.97892 22.4404 7.1955 22.5346 6.43967C22.6272 5.67464 22.7224 5.03234 22.8204 4.51277C22.9453 4.41493 23.1094 4.32439 23.3127 4.24116C23.5236 4.14711 23.7623 4.07659 24.0288 4.02959C24.4792 3.95017 24.859 3.95428 25.1683 4.04191C25.4759 4.12035 25.6746 4.2796 25.7643 4.51967C25.8335 4.69702 25.9205 4.97547 26.0253 5.35504C26.1377 5.72379 26.259 6.14309 26.3893 6.61295C26.5195 7.0828 26.6546 7.58023 26.7946 8.10524C26.9345 8.63024 27.0667 9.13768 27.1909 9.62754C27.3228 10.1066 27.439 10.5505 27.5395 10.9592C27.6384 11.3588 27.7119 11.6681 27.7599 11.8871C27.6199 12.0065 27.4658 12.1 27.2976 12.1676C27.1403 12.2427 26.9283 12.3038 26.6618 12.3508C26.3125 12.4124 26.0078 12.4045 25.7478 12.3272C25.4877 12.2498 25.3177 12.0381 25.2378 11.6921C25.006 10.6999 24.8104 9.80563 24.651 9.0092C24.5008 8.21116 24.3641 7.54342 24.2409 7.00598L24.172 7.01814C24.1432 7.39281 24.0894 7.8667 24.0104 8.43979C23.9313 9.01289 23.8423 9.74413 23.7432 10.6335Z" fill="url(#paint2_linear_742_6383)"/>
<path d="M31.5608 11.3164C31.4646 11.3618 31.3086 11.4177 31.0929 11.4842C30.8863 11.549 30.6773 11.6001 30.4659 11.6374C30.2545 11.6746 30.0629 11.6895 29.8909 11.6819C29.7298 11.6819 29.5868 11.6502 29.4619 11.587C29.337 11.5237 29.2341 11.4234 29.153 11.286C29.0719 11.1487 29.0103 10.9605 28.9682 10.7215L27.6846 3.44185C27.7824 3.40564 27.9392 3.3543 28.155 3.28782C28.3691 3.21216 28.5772 3.1565 28.7794 3.12085C28.9908 3.08357 29.1779 3.06954 29.3407 3.07875C29.511 3.07715 29.6586 3.10799 29.7835 3.17127C29.9083 3.23454 30.0113 3.33485 30.0924 3.47219C30.1735 3.60953 30.2351 3.79769 30.2772 4.03667L31.5608 11.3164Z" fill="url(#paint3_linear_742_6383)"/>
<path d="M40.7192 9.45983C40.6132 9.6112 40.4418 9.74094 40.205 9.84904C39.979 9.96471 39.6959 10.0525 39.3558 10.1125C39.0158 10.1725 38.6851 10.1786 38.364 10.131C38.0428 10.0834 37.7517 9.88357 37.4906 9.53156L35.6346 6.9872C35.4465 6.72657 35.2754 6.4819 35.1213 6.25317C34.9657 6.01526 34.7943 5.7422 34.6073 5.43399L34.527 5.46237C34.6513 5.95223 34.7588 6.45452 34.8496 6.96925C34.9495 7.48235 35.0432 7.98708 35.1308 8.48342L35.5076 10.6205C35.4113 10.6659 35.2599 10.721 35.0534 10.7858C34.856 10.8491 34.6563 10.8985 34.454 10.9342C34.2518 10.9698 34.0702 10.9876 33.909 10.9876C33.7479 10.9876 33.6095 10.9551 33.4938 10.8902C33.3781 10.8253 33.2806 10.7288 33.2011 10.6007C33.12 10.4633 33.0592 10.2798 33.0187 10.05L31.8032 3.15632C31.8994 2.9498 32.0727 2.77708 32.3231 2.63816C32.5734 2.49925 32.8503 2.40305 33.1536 2.34956C33.4937 2.2896 33.8251 2.28802 34.1479 2.34484C34.4782 2.39084 34.7685 2.58606 35.0188 2.9305L36.8886 5.47243C37.0767 5.73306 37.2486 5.98233 37.4043 6.22024C37.5584 6.44896 37.7289 6.71743 37.9159 7.02563L37.9824 6.99969C37.8582 6.50983 37.7477 6.01754 37.6509 5.52282C37.5542 5.02809 37.4621 4.53256 37.3746 4.03622L36.9808 1.80267C37.077 1.75727 37.2238 1.70295 37.4212 1.63972C37.6277 1.57487 37.8321 1.52462 38.0343 1.48896C38.4387 1.41765 38.7596 1.43689 38.9969 1.54668C39.2327 1.64728 39.3902 1.92277 39.4696 2.37315L40.7192 9.45983Z" fill="url(#paint4_linear_742_6383)"/>
<path d="M49.7296 6.76221C49.7799 7.04714 49.7666 7.26746 49.6898 7.42316C49.613 7.57887 49.4756 7.74051 49.2777 7.90808C49.162 8.00431 49.0141 8.1062 48.8341 8.21377C48.6524 8.31215 48.4507 8.40457 48.229 8.49105C48.009 8.58671 47.7727 8.67102 47.5202 8.74398C47.2769 8.81531 47.0311 8.87286 46.783 8.91662C46.1212 9.03331 45.4853 9.05539 44.8755 8.98285C44.264 8.90113 43.7107 8.71912 43.2154 8.43682C42.7278 8.14371 42.3121 7.74789 41.9683 7.24935C41.6245 6.7508 41.3894 6.14306 41.263 5.42612C41.1301 4.67242 41.1475 3.99172 41.3152 3.38404C41.4921 2.77473 41.7687 2.24735 42.145 1.8019C42.529 1.34563 42.9897 0.975336 43.5271 0.69102C44.0738 0.405084 44.6504 0.208633 45.2571 0.101666C46.1303 -0.0523024 46.8448 -0.0313872 47.4005 0.164411C47.9639 0.349397 48.2853 0.667083 48.3647 1.11747C48.4068 1.35645 48.3835 1.57379 48.2948 1.7695C48.2062 1.96521 48.0926 2.12739 47.9542 2.25605C47.7001 2.1587 47.387 2.07647 47.0151 2.00938C46.6507 1.93147 46.2525 1.93061 45.8205 2.00678C45.0484 2.14292 44.4714 2.4721 44.0896 2.99433C43.7171 3.51494 43.5996 4.16589 43.7374 4.94717C43.812 5.36998 43.9365 5.72711 44.1111 6.01855C44.2933 6.29918 44.5079 6.52196 44.755 6.6869C45.0004 6.84265 45.2699 6.94676 45.5635 6.99925C45.8554 7.04254 46.1577 7.03664 46.4702 6.98153C46.6724 6.94588 46.8484 6.89589 46.9982 6.83157C47.1479 6.76725 47.2601 6.70482 47.3348 6.64428L47.1062 5.34827L45.631 5.6084C45.558 5.51701 45.4794 5.39346 45.395 5.23774C45.3199 5.08039 45.2661 4.90981 45.2337 4.72597C45.1754 4.39508 45.2068 4.14313 45.3279 3.97014C45.4582 3.79552 45.6429 3.68714 45.8819 3.645L48.2119 3.23415C48.4877 3.18553 48.7128 3.22638 48.8875 3.35671C49.0696 3.47622 49.1851 3.67385 49.2337 3.9496L49.7296 6.76221Z" fill="url(#paint5_linear_742_6383)"/>
<path d="M20.1526 21.943C19.7239 21.8765 19.3319 21.8034 18.9767 21.7239C18.6199 21.6352 18.3042 21.5108 18.0295 21.3507C17.7549 21.1906 17.5243 20.9849 17.3378 20.7334C17.1589 20.4712 17.0338 20.1378 16.9625 19.7334C16.8247 18.9521 17.0132 18.2744 17.528 17.7003C18.052 17.1246 18.8563 16.7411 19.9409 16.5498C20.3361 16.4802 20.7087 16.4429 21.0585 16.4381C21.4083 16.4333 21.7132 16.4695 21.9733 16.5469C22.2409 16.6134 22.4598 16.7265 22.6301 16.886C22.7988 17.0363 22.9042 17.231 22.9463 17.4699C22.9885 17.7089 22.9698 17.9254 22.8903 18.1195C22.8092 18.3044 22.701 18.4704 22.5658 18.6174C22.3409 18.5244 22.0503 18.4619 21.694 18.43C21.3361 18.3888 20.9549 18.4039 20.5505 18.4752C20.1369 18.5482 19.8441 18.6614 19.6722 18.8149C19.4986 18.9593 19.4272 19.1187 19.458 19.2934C19.4823 19.4313 19.5623 19.5356 19.698 19.6065C19.8321 19.6681 20.0251 19.7146 20.277 19.746L21.0491 19.8516C21.9617 19.975 22.6859 20.2122 23.2216 20.5631C23.765 20.9033 24.1015 21.441 24.2311 22.1763C24.3689 22.9576 24.1728 23.6461 23.6429 24.2419C23.1113 24.8284 22.2481 25.227 21.0532 25.4377C20.6304 25.5123 20.2286 25.5452 19.848 25.5365C19.4782 25.5354 19.1441 25.4948 18.8456 25.4147C18.5548 25.3238 18.3142 25.1957 18.1239 25.0302C17.9412 24.8539 17.8271 24.6371 17.7817 24.3797C17.7347 24.1132 17.7732 23.8742 17.897 23.6628C18.0192 23.4422 18.1633 23.2652 18.3293 23.1317C18.6224 23.2885 18.9657 23.4081 19.3593 23.4903C19.7621 23.5709 20.184 23.5723 20.6252 23.4945C21.0756 23.4151 21.3806 23.2903 21.5401 23.12C21.6996 22.9497 21.7632 22.7726 21.7308 22.5888C21.6983 22.405 21.6005 22.28 21.4372 22.2141C21.2723 22.1389 21.0485 22.0788 20.7657 22.0339L20.1526 21.943Z" fill="url(#paint6_linear_742_6383)"/>
<path d="M24.7045 20.2448C24.5781 19.5278 24.5766 18.8742 24.6999 18.2838C24.8325 17.6918 25.0594 17.1779 25.3806 16.7422C25.7094 16.2956 26.1187 15.9297 26.6086 15.6443C27.1077 15.3572 27.6651 15.1594 28.2809 15.0508C28.8968 14.9423 29.4837 14.9383 30.0416 15.0389C30.6088 15.1379 31.1232 15.341 31.5849 15.6482C32.0449 15.9462 32.4339 16.3514 32.7517 16.864C33.0787 17.375 33.3055 17.989 33.4319 18.7059C33.5583 19.4229 33.5606 20.0811 33.4389 20.6807C33.3156 21.2711 33.0895 21.7896 32.7607 22.2361C32.4395 22.6718 32.0293 23.0332 31.5303 23.3202C31.0312 23.6073 30.4691 23.8059 29.8441 23.9161C29.2191 24.0263 28.623 24.0319 28.0559 23.9329C27.4871 23.8246 26.9765 23.6161 26.524 23.3074C26.0715 22.9986 25.6863 22.5879 25.3685 22.0753C25.0506 21.5627 24.8293 20.9525 24.7045 20.2448ZM27.1862 19.8072C27.3337 20.6436 27.614 21.2387 28.027 21.5923C28.44 21.946 28.9315 22.0726 29.5013 21.9721C30.0804 21.87 30.5035 21.5821 30.7707 21.1085C31.0378 20.6349 31.0977 19.9799 30.9502 19.1435C30.8043 18.3163 30.5249 17.7258 30.1118 17.3722C29.708 17.0169 29.2166 16.8903 28.6375 16.9924C28.0676 17.0929 27.6445 17.3807 27.3682 17.856C27.0994 18.3203 27.0388 18.9708 27.1862 19.8072Z" fill="url(#paint7_linear_742_6383)"/>
<path d="M34.2412 18.5632C34.1147 17.8463 34.1132 17.1926 34.2366 16.6022C34.3691 16.0102 34.596 15.4963 34.9172 15.0606C35.246 14.6141 35.6553 14.2481 36.1452 13.9627C36.6443 13.6757 37.2017 13.4779 37.8176 13.3693C38.4334 13.2607 39.0203 13.2567 39.5782 13.3574C40.1454 13.4564 40.6598 13.6595 41.1215 13.9666C41.5816 14.2646 41.9705 14.6699 42.2883 15.1825C42.6154 15.6935 42.8421 16.3074 42.9685 17.0243C43.0949 17.7413 43.0973 18.3995 42.9755 18.9991C42.8522 19.5895 42.6261 20.108 42.2973 20.5545C41.9761 20.9903 41.566 21.3516 41.0669 21.6387C40.5678 21.9257 40.0058 22.1243 39.3808 22.2345C38.7557 22.3447 38.1596 22.3503 37.5925 22.2513C37.0237 22.1431 36.5131 21.9346 36.0606 21.6258C35.6081 21.317 35.2229 20.9063 34.9051 20.3937C34.5873 19.8811 34.3659 19.271 34.2412 18.5632ZM36.7229 18.1256C36.8704 18.9621 37.1506 19.5571 37.5636 19.9108C37.9766 20.2644 38.4681 20.391 39.038 20.2905C39.617 20.1884 40.0401 19.9006 40.3073 19.427C40.5745 18.9534 40.6343 18.2984 40.4868 17.4619C40.3409 16.6347 40.0615 16.0443 39.6485 15.6906C39.2447 15.3353 38.7532 15.2087 38.1741 15.3109C37.6043 15.4113 37.1812 15.6992 36.9048 16.1744C36.636 16.6388 36.5754 17.2892 36.7229 18.1256Z" fill="url(#paint8_linear_742_6383)"/>
<path d="M52.4486 19.3759C52.3426 19.5272 52.1712 19.657 51.9344 19.7651C51.7084 19.8807 51.4253 19.9686 51.0853 20.0285C50.7452 20.0885 50.4146 20.0947 50.0934 20.047C49.7723 19.9994 49.4811 19.7996 49.22 19.4476L47.364 16.9032C47.1759 16.6426 47.0048 16.3979 46.8508 16.1692C46.6951 15.9313 46.5237 15.6582 46.3367 15.35L46.2564 15.3784C46.3807 15.8683 46.4882 16.3706 46.579 16.8853C46.6789 17.3984 46.7727 17.9031 46.8602 18.3995L47.237 20.5365C47.1408 20.5819 46.9894 20.637 46.7828 20.7019C46.5855 20.7651 46.3857 20.8145 46.1835 20.8502C45.9813 20.8859 45.7996 20.9037 45.6385 20.9037C45.4774 20.9036 45.3389 20.8712 45.2233 20.8063C45.1076 20.7414 45.01 20.6449 44.9305 20.5167C44.8494 20.3794 44.7886 20.1958 44.7481 19.966L43.5326 13.0724C43.6289 12.8658 43.8022 12.6931 44.0525 12.5542C44.3029 12.4153 44.5797 12.3191 44.883 12.2656C45.2231 12.2056 45.5545 12.2041 45.8773 12.2609C46.2076 12.3069 46.4979 12.5021 46.7482 12.8465L48.618 15.3885C48.8061 15.6491 48.978 15.8984 49.1337 16.1363C49.2878 16.365 49.4583 16.6335 49.6454 16.9417L49.7119 16.9157C49.5876 16.4259 49.4771 15.9336 49.3804 15.4389C49.2837 14.9441 49.1915 14.4486 49.104 13.9523L48.7102 11.7187C48.8064 11.6733 48.9532 11.619 49.1506 11.5558C49.3571 11.4909 49.5615 11.4407 49.7637 11.405C50.1681 11.3337 50.489 11.3529 50.7264 11.4627C50.9621 11.5633 51.1196 11.8388 51.1991 12.2892L52.4486 19.3759Z" fill="url(#paint9_linear_742_6383)"/>
<defs>
<linearGradient id="paint0_linear_742_6383" x1="14.4486" y1="18.7689" x2="70.9486" y2="6.26892" gradientUnits="userSpaceOnUse">
<stop stop-color="#E2E8F0"/>
<stop offset="1" stop-color="#94A3B8"/>
</linearGradient>
<linearGradient id="paint1_linear_742_6383" x1="14.4486" y1="18.7689" x2="70.9486" y2="6.26892" gradientUnits="userSpaceOnUse">
<stop stop-color="#E2E8F0"/>
<stop offset="1" stop-color="#94A3B8"/>
</linearGradient>
<linearGradient id="paint2_linear_742_6383" x1="14.4486" y1="18.7689" x2="70.9486" y2="6.26892" gradientUnits="userSpaceOnUse">
<stop stop-color="#E2E8F0"/>
<stop offset="1" stop-color="#94A3B8"/>
</linearGradient>
<linearGradient id="paint3_linear_742_6383" x1="14.4486" y1="18.7689" x2="70.9486" y2="6.26892" gradientUnits="userSpaceOnUse">
<stop stop-color="#E2E8F0"/>
<stop offset="1" stop-color="#94A3B8"/>
</linearGradient>
<linearGradient id="paint4_linear_742_6383" x1="14.4486" y1="18.7689" x2="70.9486" y2="6.26892" gradientUnits="userSpaceOnUse">
<stop stop-color="#E2E8F0"/>
<stop offset="1" stop-color="#94A3B8"/>
</linearGradient>
<linearGradient id="paint5_linear_742_6383" x1="14.4486" y1="18.7689" x2="70.9486" y2="6.26892" gradientUnits="userSpaceOnUse">
<stop stop-color="#E2E8F0"/>
<stop offset="1" stop-color="#94A3B8"/>
</linearGradient>
<linearGradient id="paint6_linear_742_6383" x1="14.4486" y1="18.7689" x2="70.9486" y2="6.26892" gradientUnits="userSpaceOnUse">
<stop stop-color="#E2E8F0"/>
<stop offset="1" stop-color="#94A3B8"/>
</linearGradient>
<linearGradient id="paint7_linear_742_6383" x1="14.4486" y1="18.7689" x2="70.9486" y2="6.26892" gradientUnits="userSpaceOnUse">
<stop stop-color="#E2E8F0"/>
<stop offset="1" stop-color="#94A3B8"/>
</linearGradient>
<linearGradient id="paint8_linear_742_6383" x1="14.4486" y1="18.7689" x2="70.9486" y2="6.26892" gradientUnits="userSpaceOnUse">
<stop stop-color="#E2E8F0"/>
<stop offset="1" stop-color="#94A3B8"/>
</linearGradient>
<linearGradient id="paint9_linear_742_6383" x1="14.4486" y1="18.7689" x2="70.9486" y2="6.26892" gradientUnits="userSpaceOnUse">
<stop stop-color="#E2E8F0"/>
<stop offset="1" stop-color="#94A3B8"/>
</linearGradient>
</defs>
</svg>
