<svg width="141" height="80" viewBox="0 0 141 80" fill="none" xmlns="http://www.w3.org/2000/svg">
<g clip-path="url(#clip0_666_24064)">
<path d="M136.17 25.8446C138.791 25.8446 140.917 23.7179 140.917 21.0945C140.917 18.4711 138.791 16.3444 136.17 16.3444C133.549 16.3444 131.424 18.4711 131.424 21.0945C131.424 23.7179 133.549 25.8446 136.17 25.8446Z" fill="white"/>
<path d="M120.307 25.8446C122.929 25.8446 125.054 23.7179 125.054 21.0945C125.054 18.4711 122.929 16.3444 120.307 16.3444C117.686 16.3444 115.561 18.4711 115.561 21.0945C115.561 23.7179 117.686 25.8446 120.307 25.8446Z" fill="white"/>
<path d="M65.4888 28.3363C62.8666 28.3363 60.7423 30.4622 60.7423 33.0864L60.6588 61.3825C60.6588 62.65 61.1107 63.736 62.0146 64.6405C62.9184 65.545 64.0035 65.9972 65.27 65.9972H70.1546L70.2381 33.0864C70.2381 30.4622 68.1138 28.3363 65.4916 28.3363H65.4888Z" fill="white"/>
<path d="M120.388 28.3363C117.766 28.3363 115.642 30.4622 115.642 33.0864L115.558 61.3825C115.558 62.65 116.01 63.736 116.914 64.6405C117.818 65.545 118.903 65.9972 120.169 65.9972H125.054L125.137 33.0864C125.137 30.4622 123.013 28.3363 120.391 28.3363H120.388Z" fill="white"/>
<path d="M136.254 28.3363C133.631 28.3363 131.507 30.4622 131.507 33.0864L131.424 61.3825C131.424 62.65 131.876 63.736 132.779 64.6405C133.683 65.545 134.768 65.9972 136.035 65.9972H140.919L141.003 33.0864C141.003 30.4622 138.879 28.3363 136.256 28.3363H136.254Z" fill="white"/>
<path d="M53.8141 43.9664C53.8141 51.1074 53.8112 58.8332 53.8083 65.9742C52.0669 65.9684 50.3255 65.9627 48.5841 65.9569C46.1317 65.9569 44.373 63.7388 44.373 61.2817V43.808C44.2867 40.3916 41.4975 37.6493 38.0636 37.6493C34.6297 37.6493 31.9759 40.2562 31.76 43.5516V43.6092C31.7513 43.7273 31.7513 43.8512 31.7513 43.9693C31.7513 44.0874 31.7513 44.7989 31.76 44.9141V44.9746C31.76 51.9543 31.76 58.9311 31.76 65.9108L22.1174 65.9569L22.103 45.1244C22.103 45.1244 22.1088 45.0956 22.1088 45.0812V45.0668C22.1232 44.9055 22.1289 44.1508 22.1289 43.9808C22.1289 43.8426 22.1232 43.7072 22.1145 43.5689C22.1145 43.5113 22.1088 43.4566 22.1002 43.3989C21.8526 40.1842 19.1728 37.655 15.9001 37.655C12.4605 37.655 9.67709 40.4463 9.67709 43.8886C9.67709 44.0269 9.68285 44.7471 9.69148 44.8796L9.46985 65.9598H0V28.4198H5.11487C6.37848 28.4198 7.46362 28.8692 8.37031 29.7766C8.45666 29.863 8.53726 29.9581 8.61785 30.0474C8.96901 29.8572 9.32305 29.6815 9.69436 29.5202C10.5608 29.14 11.4761 28.8375 12.4173 28.6157C12.4231 28.6157 12.4317 28.6157 12.4375 28.6099C13.4996 28.3968 14.5818 28.27 15.7015 28.2153C16.283 28.2153 16.8701 28.2355 17.4487 28.2729C19.1642 28.4285 20.7934 28.8548 22.2988 29.5145C24.0747 30.2922 25.6722 31.3782 27.0308 32.7148C28.3894 31.3782 29.9927 30.2865 31.7629 29.5145C32.6379 29.1342 33.5474 28.8317 34.4916 28.6128L35.2773 28.4515C35.2975 28.4457 35.3148 28.4429 35.3349 28.4429C36.1437 28.3305 36.9727 28.2527 37.8132 28.2153C38.5558 28.2153 39.2869 28.2527 40.0008 28.3248C40.0238 28.3248 40.0468 28.3305 40.0727 28.3334C41.5839 28.5235 43.0346 28.9297 44.3788 29.5231C47.9969 31.1074 50.9069 34.0082 52.4929 37.6205C53.6673 40.2937 53.7997 42.8977 53.8083 43.1714C53.8227 43.5084 53.8227 43.7821 53.817 43.9664H53.8141Z" fill="white"/>
<path d="M86.7369 43.9261C86.8866 41.0513 88.9676 38.6834 91.7107 38.1188C91.7309 38.113 91.7568 38.1073 91.7798 38.1044C92.1655 38.0266 92.5656 37.9892 92.9772 37.9892C93.4406 37.9892 93.8868 38.0381 94.3185 38.1332C95.421 38.3377 96.4399 38.7929 97.3754 39.5073C97.6834 39.7406 97.9539 40.0056 98.1871 40.3023C98.4864 40.6797 98.8405 41.0138 99.229 41.2817C99.9947 41.8175 100.91 42.1228 101.869 42.1228H108.601C108.411 40.5817 107.997 39.1126 107.398 37.7443C105.803 34.1061 102.873 31.1852 99.229 29.6009C97.3063 28.7597 95.1792 28.296 92.9456 28.296C90.7119 28.296 88.5704 28.7626 86.6419 29.6095C83.0094 31.1967 80.0907 34.109 78.499 37.7414C77.8773 39.1587 77.457 40.6854 77.2786 42.2813C77.2498 43.1656 77.2268 44.7183 77.2124 45.6861C77.2095 45.6919 77.2095 45.7005 77.2124 45.7063C77.1951 46.9968 77.1865 48.2902 77.1951 49.4079V49.4338C77.198 50.1107 77.2066 50.7272 77.2152 51.2399V51.2457C77.3419 53.0864 77.7823 54.8436 78.4932 56.4567C80.0821 60.0978 83.0037 63.0245 86.6448 64.6146C88.4064 65.3894 90.3406 65.8446 92.3699 65.9195H92.3814C92.5685 65.9252 92.7585 65.931 92.9513 65.931C94.5229 65.931 96.0369 65.7005 97.4675 65.2742H97.4704C98.0748 65.0927 98.6649 64.8796 99.2348 64.629C102.885 63.0417 105.818 60.1093 107.409 56.4596C107.985 55.146 108.388 53.7316 108.584 52.2568L108.604 52.2107V47.9589H98.5469C97.2804 47.9589 96.1952 48.4112 95.2914 49.3157C94.3876 50.2202 93.9357 51.3062 93.9357 52.5736V54.6477H97.5394C97.4675 54.7139 97.3898 54.7773 97.312 54.8378C96.3507 55.5896 95.2857 56.0592 94.1171 56.2407C94.0796 56.2464 94.0393 56.2551 94.0019 56.2608H93.9962C93.668 56.3184 93.3284 56.3444 92.983 56.3444C92.7153 56.3444 92.4505 56.3271 92.1885 56.2925C92.1828 56.2954 92.1742 56.2925 92.1684 56.2925C92.1079 56.2867 92.0533 56.2752 91.9928 56.2637C89.0137 55.7855 86.7369 53.2045 86.7369 50.0848V44.8306C86.7369 44.7211 86.7398 44.0269 86.7427 43.9203L86.7369 43.9261Z" fill="white"/>
<path d="M70.4453 14.1983L72.2644 16.0448C73.0502 16.8427 73.4388 17.8077 73.4302 18.9398C73.4215 20.0718 73.0186 21.0311 72.2213 21.8175L70.0884 23.9232C67.4633 26.5129 63.2407 26.4812 60.656 23.857L70.4453 14.1983Z" fill="url(#paint0_linear_666_24064)"/>
<path d="M60.4314 14.1176L58.5864 15.9382C57.7891 16.7246 57.3861 17.6838 57.3804 18.8159C57.3717 19.948 57.7632 20.913 58.549 21.7109L60.6531 23.8454C63.2407 26.4697 67.4633 26.4985 70.0855 23.9088L60.4314 14.1176Z" fill="url(#paint1_linear_666_24064)"/>
</g>
<defs>
<linearGradient id="paint0_linear_666_24064" x1="64.0179" y1="25.4557" x2="72.7149" y2="16.0889" gradientUnits="userSpaceOnUse">
<stop stop-color="#F7991C"/>
<stop offset="0.98" stop-color="#FFD150"/>
</linearGradient>
<linearGradient id="paint1_linear_666_24064" x1="57.3775" y1="19.9768" x2="70.0826" y2="19.9768" gradientUnits="userSpaceOnUse">
<stop offset="0.02" stop-color="#FFCA37"/>
<stop offset="1" stop-color="#FFD66A"/>
</linearGradient>
<clipPath id="clip0_666_24064">
<rect width="141" height="80" fill="white"/>
</clipPath>
</defs>
</svg>
