<svg width="32" height="32" viewBox="0 0 32 32" fill="none" xmlns="http://www.w3.org/2000/svg">
<path d="M24.7742 8.77419C24.7742 7.4925 23.9954 6.39275 22.8854 5.922C23.3374 4.80425 23.1106 3.47613 22.2043 2.56988C21.2981 1.66363 19.9699 1.43675 18.8522 1.88875C18.3814 0.77875 17.2817 0 16 0C14.7183 0 13.6186 0.77875 13.1478 1.88875C12.0301 1.43681 10.7019 1.66363 9.79569 2.56988C8.88944 3.47613 8.66256 4.80425 9.11456 5.922L8.21875 7.6875L9.875 12.5938L15.9375 16.5417C17.2192 16.5417 18.3814 16.7697 18.8522 15.6596C19.9699 16.1116 21.2981 15.8848 22.2043 14.9785C23.1106 14.0723 23.3374 12.7441 22.8854 11.6264C23.9954 11.1556 24.7742 10.0559 24.7742 8.77419Z" fill="#62D2A2"/>
<path d="M17.8062 15.7419C12.9603 15.7419 9.03202 11.8136 9.03202 6.96775C9.03202 6.616 9.07409 6.26293 9.11434 5.92206C8.0129 6.39656 7.22559 7.49875 7.22559 8.77425C7.22559 10.0559 8.00434 11.1557 9.11434 11.6264C8.6624 12.7442 8.88921 14.0723 9.79546 14.9786C10.7017 15.8848 12.0298 16.1117 13.1476 15.6597C13.6183 16.7697 14.7181 17.5484 15.9998 17.5484C17.2752 17.5484 18.3774 16.7611 18.852 15.6597C18.511 15.6999 18.158 15.7419 17.8062 15.7419Z" fill="#41C48B"/>
<path d="M17.9133 13.0544C17.7116 12.8528 17.385 12.8528 17.1834 13.0544L16.5161 13.7217V12.387C16.5161 12.102 16.2851 11.8709 16 11.8709C15.7149 11.8709 15.4839 12.102 15.4839 12.387V21.6773H16.5161V15.1814L17.9133 13.7842C18.1149 13.5827 18.1149 13.256 17.9133 13.0544Z" fill="#AA6100"/>
<path d="M21.0395 24.258L20.1287 22.1935H11.8706L12.501 23.2258L13.426 31.0884C13.4872 31.6082 13.9278 32 14.4512 32H19.2107C19.7342 32 20.1747 31.6082 20.2359 31.0884L21.0395 24.258Z" fill="#CC7400"/>
<path d="M15.9997 24.258H21.0396L21.161 23.2258L20.1288 22.1935H11.8706L10.8384 23.2258L11.7634 31.0883C11.8246 31.6082 12.2651 32 12.7886 32H14.4513V25.8064C14.4513 24.9513 15.1446 24.258 15.9997 24.258Z" fill="#AA6100"/>
<path d="M12.3868 21.1613H10.3223C10.0372 21.1613 9.80615 21.3924 9.80615 21.6774V22.7097C9.80615 22.9947 10.0372 23.2258 10.3223 23.2258H21.6771C21.9622 23.2258 22.1932 22.9947 22.1932 22.7097V22.1936L12.3868 21.1613Z" fill="#CC7400"/>
<path d="M14.4486 11.3549C14.8624 10.9411 14.5047 9.9125 13.6497 9.05748C12.7946 8.20246 11.7661 7.84477 11.3523 8.25857C10.9385 8.67237 11.2962 9.70094 12.1512 10.556C13.0062 11.411 14.0348 11.7687 14.4486 11.3549Z" fill="#A0E897"/>
<path d="M19.8591 8.50887C20.7142 7.65384 21.0718 6.62527 20.658 6.21147C20.2443 5.79767 19.2157 6.15536 18.3607 7.01038C17.5056 7.8654 17.1479 8.89398 17.5617 9.30778C17.9755 9.72157 19.0041 9.36389 19.8591 8.50887Z" fill="#A0E897"/>
<path d="M21.677 21.1613H12.3867V21.6774C12.3867 21.9624 12.6178 22.1936 12.9028 22.1936H22.1932V21.6774C22.1932 21.3924 21.9621 21.1613 21.677 21.1613Z" fill="#BC762A"/>
</svg>
