<svg width="32" height="32" viewBox="0 0 32 32" fill="none" xmlns="http://www.w3.org/2000/svg">
<path d="M17.0129 23.1163C18.8082 22.7926 20.4576 21.9162 21.7307 20.6096C25.1997 17.1406 24.8227 11.379 24.6296 9.70781C24.6136 9.57334 24.5529 9.44816 24.4571 9.3524C24.3614 9.25665 24.2362 9.1959 24.1017 9.17992C22.88 9.03814 19.474 8.79983 16.373 10.0366L17.0129 23.1163Z" fill="#9E5E23"/>
<path d="M19.2885 17.9306C21.6511 15.5083 23.4209 12.572 24.4591 9.35156C22.1784 10.078 20.036 11.1823 18.1211 12.6185L19.2885 17.9306Z" fill="#844D20"/>
<path d="M19.3181 17.1406C19.3181 21.342 16.6171 24.748 13.285 24.748C9.95296 24.748 7.25195 21.342 7.25195 17.1406C7.25195 12.2357 11.594 8.4258 12.9107 7.38298C13.017 7.29815 13.149 7.25195 13.285 7.25195C13.4211 7.25195 13.553 7.29815 13.6594 7.38298C14.9761 8.4258 19.3181 12.2357 19.3181 17.1406Z" fill="#BC762A"/>
<path d="M15.6985 17.2065C15.6985 21.3715 14.618 24.7479 13.2853 24.7479C11.9526 24.7479 10.8721 21.3715 10.8721 17.2065C10.88 13.7444 11.7069 10.3333 13.2853 7.25195C14.8637 10.3333 15.6906 13.7444 15.6985 17.2065Z" fill="#9E5E23"/>
</svg>
