<svg width="32" height="32" viewBox="0 0 32 32" fill="none" xmlns="http://www.w3.org/2000/svg">
<path d="M17.7498 21.9798C17.6767 21.9799 17.6048 21.9618 17.5405 21.9269C17.4763 21.8921 17.4218 21.8417 17.382 21.7804C17.3422 21.7191 17.3184 21.6488 17.3128 21.576C17.3072 21.5031 17.3199 21.43 17.3498 21.3633C17.3636 21.3328 18.7153 18.29 18.6728 16.1968C18.6371 15.4635 18.5547 14.7331 18.4261 14.0103C18.1511 12.2268 17.8688 10.383 18.7438 9.0423C18.7544 9.02627 18.7659 9.01091 18.7783 8.9963L20.3858 7.1213C20.4232 7.0777 20.4689 7.0419 20.5202 7.01594C20.5714 6.98998 20.6273 6.97438 20.6846 6.97001C20.7419 6.96565 20.7995 6.97261 20.8541 6.99051C20.9087 7.0084 20.9592 7.03687 21.0028 7.0743C21.0464 7.11173 21.0822 7.15737 21.1082 7.20864C21.1341 7.2599 21.1497 7.31577 21.1541 7.37306C21.1585 7.43036 21.1515 7.48795 21.1336 7.54255C21.1157 7.59716 21.0872 7.6477 21.0498 7.6913L19.4621 9.5428C18.7883 10.6045 19.0438 12.2678 19.2911 13.8768C19.4261 14.638 19.5125 15.4071 19.5498 16.1793C19.5963 18.4698 18.2093 21.5895 18.1498 21.7213C18.1152 21.7984 18.059 21.8638 17.9881 21.9097C17.9171 21.9556 17.8343 21.9799 17.7498 21.9798Z" fill="#43B785"/>
<path d="M18.9758 15.0617C15.9836 15.4964 14.5171 14.3039 14.1113 12.4192C17.0378 10.9452 18.7946 13.8114 18.9758 15.0617Z" fill="#62D2A2"/>
<path d="M15.7252 27.8561C13.5399 29.2811 10.6099 28.9311 9.04016 28.5903C8.73022 28.5224 8.45945 28.3352 8.28637 28.0693C8.11329 27.8034 8.05179 27.48 8.11516 27.1691C8.43716 25.5941 9.30041 22.7736 11.4857 21.3493C13.6709 19.9251 16.6002 20.2751 18.1697 20.6153C18.4796 20.6833 18.7503 20.8705 18.9234 21.1364C19.0964 21.4024 19.158 21.7257 19.0947 22.0366C18.7752 23.6103 17.9107 26.4318 15.7252 27.8561Z" fill="#9E5E23"/>
<path d="M19.1201 23.8866C18.5051 25.7091 17.4101 27.8391 15.4876 29.0916C12.7851 30.8516 9.16506 30.4216 7.22256 29.9991C6.83933 29.9149 6.50454 29.6835 6.29036 29.3547C6.07618 29.0259 5.99975 28.6262 6.07756 28.2416C6.47756 26.2966 7.54256 22.8091 10.2451 21.0491C12.0351 19.8841 14.2301 19.6791 16.0701 19.7966C15.8532 20.4479 15.6754 21.1116 15.5376 21.7841C15.4587 22.1688 15.5347 22.569 15.7491 22.898C15.9634 23.227 16.2988 23.4583 16.6826 23.5416C17.4856 23.7157 18.3003 23.831 19.1201 23.8866Z" fill="#BC762A"/>
<path d="M10.5566 29.3122C10.4406 29.3122 10.3293 29.2661 10.2473 29.184C10.1652 29.102 10.1191 28.9907 10.1191 28.8747C10.1191 28.7586 10.1652 28.6474 10.2473 28.5653C10.3293 28.4833 10.4406 28.4372 10.5566 28.4372C11.2065 28.4419 11.855 28.3779 12.4914 28.2462C12.6048 28.2217 12.7234 28.2433 12.8209 28.3062C12.9184 28.3691 12.9869 28.4682 13.0114 28.5817C13.0359 28.6951 13.0143 28.8136 12.9513 28.9111C12.8884 29.0087 12.7893 29.0772 12.6759 29.1017C11.9789 29.2464 11.2685 29.317 10.5566 29.3122Z" fill="#9E5E23"/>
<path d="M19.1113 9.28076C19.4933 3.77501 22.1883 1.61926 25.7081 1.62501C27.2056 7.41626 21.4121 9.44126 19.1113 9.28076Z" fill="#A0E897"/>
</svg>
