<svg width="32" height="32" viewBox="0 0 32 32" fill="none" xmlns="http://www.w3.org/2000/svg">
<path d="M10.3785 17.4136C10.9299 18.483 11.231 19.4858 12.6013 19.6692C12.8628 19.7051 13.1204 19.7698 13.3692 19.8601C13.9608 20.0747 14.5025 20.5963 14.9265 21.0703L16.2911 22.5043C16.6377 22.9093 16.5904 23.5187 16.1853 23.8653C15.4184 24.4328 14.971 23.7218 14.4355 23.0046C14.1254 22.5894 13.7323 22.2908 13.3691 21.9293C13.0665 21.6281 12.7289 21.4073 12.3284 21.3695C11.1848 21.1748 10.0865 20.4419 9.4606 19.0757C9.33373 18.7988 9.1466 18.3495 9.01167 18.0648C8.62004 17.1813 9.93948 16.554 10.3785 17.4136Z" fill="#CC7400"/>
<path d="M22.976 20.0415C22.2408 20.994 21.7639 21.9261 20.3831 21.8596C19.7849 21.8327 19.1799 21.9538 18.6306 22.2037C18.3621 22.3259 18.1068 22.6722 17.8724 22.854L16.2426 24.1766C15.8286 24.5126 15.2794 25.4131 15.6153 25.827C16.2116 26.4637 16.8022 25.9333 17.5026 25.3046C17.8634 24.9808 18.305 24.7271 18.6832 24.3921C19.2261 23.9111 19.7834 23.5321 20.3449 23.5812C21.5049 23.5957 22.6518 23.0528 23.3652 22.1369C23.5549 21.8986 24.2872 20.8001 24.4713 20.5442C25.0157 19.7458 23.5627 19.2752 22.976 20.0415Z" fill="#CC7400"/>
<path d="M18.6833 24.3921C18.6485 24.0176 18.6307 23.6413 18.6307 23.2645L18.6305 22.2038C18.362 22.326 18.1068 22.4787 17.8724 22.6605L16.2426 23.9832C15.8287 24.3191 15.2794 25.4131 15.6153 25.8271C16.5187 26.7918 17.5707 25.3778 18.6833 24.3921Z" fill="#AA6100"/>
<path d="M16.2911 22.5042L14.9265 20.9095C14.5025 20.4356 13.9608 20.0747 13.3693 19.8601L13.3691 21.9294C14.3597 22.9151 14.9745 24.7614 16.1853 23.8654C16.5904 23.5187 16.6378 22.9094 16.2911 22.5042Z" fill="#CC7400"/>
<path d="M19 29.7609C17.9187 27.7736 17.1557 25.5267 17.1557 23.2644L17.0915 12.0859H15.7828H16.2168H14.6517V23.2644C14.6517 25.5268 14.0852 27.7532 13.0039 29.7404L16.2989 29.8253L19 29.7609Z" fill="#CC7400"/>
<path d="M17.5 29L18.9959 29.7404C17.9146 27.7532 17.3481 25.5268 17.3481 23.2644V12.0859H16.2169H16.0654V23.2644C16.0654 25.4152 16.5204 27.0888 17.5 29Z" fill="#AA6100"/>
<path d="M23.1053 8.33756C23.1053 8.99744 23.0933 9.54038 22.586 9.88538C22.2943 10.0848 21.9454 10.2047 21.5683 10.2163C21.6389 10.4164 21.3612 10.6575 21.3612 10.8813C21.3612 11.9016 20.7629 12.4659 19.758 12.5275C19.0282 13.7806 17.8964 14.4622 16.3419 14.4622C15.2998 14.4622 14.2955 14.2917 13.56 13.6645C13.3773 13.9011 13.0777 14.3308 12.8244 14.4911C12.4287 14.7419 11.8574 14.554 11.3546 14.554C9.93869 14.554 9.155 13.2766 9.155 11.8612C9.155 11.6266 9.18706 11.4002 9.24606 11.1847C7.99875 10.5941 6.847 9.84056 6.63863 8.42719C6.60913 8.22519 6.59375 8.01806 6.59375 7.80837C6.59375 6.58481 7.11575 5.48306 7.94875 4.71419C8.0685 4.60338 8.19469 4.69188 8.32675 4.59544C8.46831 4.49206 8.61656 4.205 8.77087 4.11969C8.74075 3.98694 8.72406 3.84906 8.72275 3.70738C8.71569 2.7025 9.46281 1.87269 10.4632 1.78225C11.1115 1.72325 11.7015 1.98813 12.0888 2.43313C12.1473 2.30788 12.2118 2.37825 12.2819 2.25994C12.3681 2.11475 12.4628 1.78269 12.5653 1.64944C13.3348 0.646438 14.5449 0 15.907 0C17.4506 0 18.7998 0.829813 19.5334 2.0675C19.6021 2.18313 19.4728 2.30231 19.5302 2.42481C19.6091 2.59319 19.8695 2.76769 19.9259 2.94731C20.278 2.81775 20.6038 2.89688 21.0085 2.93663C22.2776 3.06169 23.0729 4.04513 23.1159 5.31938C23.1346 5.87025 23.0095 6.41781 22.7306 6.84363C22.6677 6.93919 22.6716 7.06425 22.7453 7.15144C23.0267 7.48556 23.1053 7.86688 23.1053 8.33756Z" fill="#62D2A2"/>
<path d="M23.4263 8.29817C23.4263 7.82748 23.257 7.39654 22.9755 7.06242C22.9017 6.97523 22.8979 6.85017 22.9607 6.7546C23.2397 6.32879 23.3956 5.81573 23.3769 5.26492C23.3339 3.99067 22.34 2.92679 21.0709 2.80173C20.6662 2.76198 20.2776 2.81779 19.9256 2.94729C19.9256 2.94729 21.8182 3.96367 20.8508 7.06854C20.7774 7.30398 20.5092 7.4156 20.2912 7.30029C19.7977 7.03923 19.3371 6.8336 18.7253 6.8336C18.4337 6.8336 18.1457 6.8876 17.8569 6.92898C16.7473 7.08785 15.7496 8.16279 15.7496 8.16279C15.2894 8.67629 14.9617 9.30835 14.8154 10.0039C14.7806 10.1692 14.6562 10.3029 14.4939 10.35C13.8147 10.547 13.1907 10.9223 12.6983 11.4431C12.6246 11.521 12.5548 11.6015 12.4885 11.6842C12.4385 11.7464 12.3487 11.7587 12.2832 11.7132L12.2813 11.7119C12.2408 11.6838 12.2167 11.638 12.2151 11.5887C12.1676 10.1776 11.3209 8.86942 9.98331 8.27598C9.49981 8.06123 8.98775 7.95235 8.46143 7.95235C7.82518 7.95235 7.19412 8.12067 6.63818 8.42679C6.84287 9.8461 7.76418 11.0291 9.015 11.6217C8.95618 11.8372 8.92418 12.0638 8.92418 12.298C8.92418 13.7139 10.0719 14.8616 11.4878 14.8616C11.9909 14.8616 12.5621 15.0495 12.9579 14.799C13.2111 14.6388 13.3322 14.1024 13.5152 13.8661C14.2506 14.493 15.2036 14.8721 16.2456 14.8721C17.8002 14.8721 19.1572 14.0293 19.8871 12.7763C20.8918 12.7149 21.6877 11.881 21.6877 10.8609C21.6877 10.6366 21.6489 10.4215 21.5782 10.2214C22.0341 10.2072 22.4499 10.0339 22.7721 9.75548C22.7674 9.75448 22.7626 9.75385 22.7579 9.75285C23.1669 9.40123 23.4263 8.87998 23.4263 8.29817Z" fill="#41C48B"/>
<path d="M12.4161 16.8658C11.8294 18.1875 10.8624 19.1782 9.5028 19.1654C9.03661 19.1615 8.56461 19.064 8.11186 18.8627C7.60524 18.6375 7.17817 18.3073 6.84467 17.909C6.30661 18.3009 5.58005 18.4035 4.92786 18.1142C3.96467 17.6865 3.52605 16.5662 3.93642 15.5998C3.73249 15.5664 3.52924 15.5068 3.33167 15.4189C2.0818 14.8649 1.51811 13.4021 2.07286 12.1522C2.59805 10.9684 3.93774 10.4002 5.13949 10.8145C5.2068 10.8376 5.45242 11.3365 5.51849 11.366C5.7673 11.4764 5.81092 11.1505 6.00199 11.325C6.03467 11.1147 6.09499 10.9056 6.18542 10.7017C6.37524 10.2733 6.67149 9.92574 7.02936 9.6763C7.7168 9.19661 8.43174 9.40224 9.25324 9.76711C10.3517 10.2545 10.8062 11.3002 10.5523 12.4288C10.5344 12.5077 10.5773 12.5872 10.651 12.6192C12.4255 13.4067 13.2036 15.0914 12.4161 16.8658Z" fill="#A0E897"/>
<path d="M12.7507 17.0754C12.1639 18.3971 10.8627 19.1782 9.50322 19.1654C13.2213 13.5399 7.02979 9.6763 7.02979 9.6763C7.71722 9.19661 8.6311 9.07799 9.45254 9.44286C10.551 9.93024 11.1186 11.1179 10.8647 12.2466C10.8467 12.3254 10.8884 12.4043 10.9622 12.4364C10.9628 12.4364 10.9628 12.437 10.9635 12.437C12.7378 13.2245 13.5382 15.301 12.7507 17.0754Z" fill="#62D2A2"/>
<path d="M5.94215 13.1264C5.87546 13.1579 5.80559 13.1726 5.73696 13.1726C5.55678 13.1726 5.38359 13.0707 5.30153 12.8975C5.04628 12.3575 4.95265 11.7259 5.05846 11.1423C5.0854 10.9948 5.11234 10.889 5.1399 10.8146C5.20721 10.8377 5.27459 10.864 5.34065 10.8935C5.58946 11.0038 5.81134 11.1506 6.00246 11.3251C5.94028 11.7201 5.99859 12.1215 6.17115 12.4858C6.28459 12.7263 6.18196 13.0129 5.94215 13.1264Z" fill="#62D2A2"/>
<path d="M28.9298 13.929C28.9298 15.0134 28.4767 15.7182 27.5834 16.1979C27.1832 16.4127 26.7563 16.7772 26.2702 16.7772C24.6997 16.7772 23.4268 15.5043 23.4268 13.9338C23.4268 13.7517 23.4447 13.5734 23.4774 13.4009C22.2596 13.0795 21.6863 12.0605 21.6863 10.7415C21.6863 10.005 21.6413 9.24398 22.1009 8.73891C22.4444 8.36135 22.8882 8.07666 23.3902 7.92691C23.3902 7.92691 23.3902 7.92691 23.3908 7.92629C23.6486 7.84935 23.9218 7.80829 24.2046 7.80829C25.7751 7.80829 27.0488 9.08123 27.0488 10.6517C27.0488 10.8088 27.0354 10.963 27.0108 11.113C27.0041 11.1539 27.0285 11.1925 27.0683 11.204C27.3655 11.2906 27.5488 11.4474 27.7968 11.6204C28.5367 12.1328 28.9298 12.9607 28.9298 13.929Z" fill="#62D2A2"/>
<path d="M27.8897 11.5976C27.6222 11.411 27.347 11.2946 27.048 11.1954C27.3905 11.9261 27.8208 12.728 27.7714 13.655C27.762 13.8317 27.5617 13.9321 27.4131 13.8362C27.2154 13.7086 27.0046 13.6031 26.784 13.5216C26.5909 13.4503 26.4397 13.2958 26.3818 13.0983C25.9007 11.454 24.5541 10.1687 22.8767 9.77576C22.6738 9.72826 22.5084 9.58314 22.431 9.38964C22.3409 9.16458 22.2297 8.94651 22.1005 8.73901C21.641 9.24408 21.3608 9.91526 21.3608 10.6518C21.3608 11.971 22.2593 13.0797 23.4771 13.401C23.4444 13.5735 23.4265 13.7518 23.4265 13.934C23.4265 15.5045 24.6994 16.7774 26.2699 16.7774C26.756 16.7774 27.2126 16.6555 27.6128 16.4407C28.5061 15.961 29.114 15.0183 29.114 13.934C29.1139 12.9655 28.6297 12.11 27.8897 11.5976Z" fill="#41C48B"/>
<path d="M7.25742 19.5709C6.90279 19.7081 6.56098 19.7919 6.22304 19.6886C6.09348 19.6495 5.95498 19.7194 5.91073 19.8477C5.75942 20.2883 5.42142 20.6615 4.95204 20.843C4.1081 21.1687 3.15904 20.7487 2.83323 19.9041C2.64854 19.4257 2.70367 18.9133 2.94029 18.5003C2.79854 18.401 2.74404 18.1444 2.62798 18.013C2.5241 17.8969 2.35542 17.9084 2.27654 17.7686C2.22329 17.6743 2.17585 17.5743 2.13548 17.4698C1.79492 16.5876 2.0476 15.6223 2.69885 15.0139C2.90354 14.8226 3.21523 14.7597 3.4926 14.6527C3.69204 14.5758 3.86829 14.5798 4.07154 14.561C4.65498 14.5069 5.79067 14.9388 6.16129 15.8988C6.21517 16.0386 6.36923 16.2225 6.39429 16.3648C6.4161 16.4885 6.52385 16.5751 6.64954 16.5758C7.30367 16.5796 7.87573 16.8969 8.12517 17.5433C8.45098 18.3879 8.10135 19.2451 7.25742 19.5709Z" fill="#A0E897"/>
<path d="M3.86168 17.9207C3.74755 17.929 3.6353 17.954 3.52755 17.9957C3.2768 18.0925 3.07355 18.267 2.94012 18.5004C2.67268 18.3125 2.44374 18.0656 2.27637 17.7687C2.51043 17.4699 2.82399 17.2365 3.18124 17.0986C3.37812 17.0229 3.5833 16.9768 3.79237 16.9614C4.05724 16.9427 4.28743 17.1415 4.30668 17.4064C4.32593 17.6712 4.12649 17.9014 3.86168 17.9207Z" fill="#62D2A2"/>
<path d="M21.718 17.7303C21.4545 17.7303 21.3704 17.6498 21.1235 17.5947C20.983 17.5633 20.7449 17.584 20.6115 17.5366C20.4409 17.4756 20.2761 17.5936 20.119 17.5084C19.7778 18.1708 19.0878 18.6242 18.2914 18.6242C17.3019 18.6242 16.4765 17.9252 16.2803 16.9947C16.2604 16.8991 16.17 16.8369 16.0738 16.8543C15.8205 16.8998 15.5557 16.9107 15.2837 16.8799C13.98 16.7337 12.9559 15.6486 12.8828 14.3391C12.7949 12.7699 14.0422 11.4694 15.5922 11.4694C15.7628 11.4694 15.9289 11.4861 16.0912 11.5162C16.0328 11.2949 16.3329 11.2609 16.3329 11.0224C16.3329 10.9204 16.0078 10.6229 16.0187 10.5241C16.1457 9.37238 16.9928 8.43675 18.0996 8.18088C20.0446 7.80763 21.4292 9.32619 21.4292 10.8249V10.8262C21.4292 10.8923 21.4844 10.9461 21.5504 10.9416C21.6722 10.9333 21.869 11.023 21.9934 11.0274C23.4857 11.0806 24.4017 11.9796 24.8448 13.3443C24.9416 13.6412 24.9994 13.9554 25.0115 14.2805C25.0872 16.2749 23.6957 17.7303 21.718 17.7303Z" fill="#A0E897"/>
<path d="M25.2874 14.2968C25.275 13.9725 25.217 13.6594 25.1208 13.3628C25.1208 13.3628 25.1207 13.3628 25.1207 13.3628V13.3605C24.6775 11.9959 23.4117 10.9891 21.9194 10.9358C21.795 10.9313 21.6718 10.9333 21.55 10.9416C21.55 10.9416 23.3475 11.9403 23.3475 14.088C23.3475 14.2081 23.303 14.3237 23.2232 14.4136C22.9463 14.7258 22.7342 15.0858 22.5962 15.4745C22.5485 15.6087 22.449 15.7196 22.3156 15.7696C21.9794 15.8955 21.6638 16.0771 21.3842 16.3089C20.9834 16.6407 20.6163 16.8732 20.1187 17.5084C20.251 17.5933 20.5335 17.4816 20.5793 17.498C20.713 17.5459 20.8823 17.8168 21.0228 17.8483C21.2697 17.9035 21.4333 17.933 21.6969 17.933C23.6747 17.9328 25.3631 16.2911 25.2874 14.2968Z" fill="#62D2A2"/>
<path d="M21.2548 16.7888C21.2548 17.1536 21.1753 17.5179 21.0233 17.8481C20.7033 17.7763 20.3993 17.6609 20.1191 17.5083C20.2346 17.2844 20.293 17.0427 20.293 16.7888C20.293 16.6175 20.266 16.4501 20.2128 16.2905C20.1288 16.0385 20.2647 15.7659 20.5167 15.6819C20.7687 15.5979 21.0413 15.7339 21.1253 15.9859C21.2112 16.2443 21.2548 16.5143 21.2548 16.7888Z" fill="#62D2A2"/>
<path d="M17.9553 12.1561C17.8616 12.2478 17.7405 12.2934 17.6186 12.2934C17.4942 12.2934 17.3691 12.2452 17.2755 12.149C16.9517 11.8188 16.5419 11.5995 16.0911 11.5161C16.0327 11.2949 16.002 11.0634 16.002 10.8248C16.002 10.7228 16.0077 10.6228 16.0186 10.524C16.7702 10.6401 17.5026 11.0063 17.9624 11.4757C18.1483 11.6655 18.1451 11.9702 17.9553 12.1561Z" fill="#62D2A2"/>
<path d="M8.5511 15.1743C8.42803 15.1743 8.30491 15.1273 8.21104 15.0335C7.45635 14.2788 7.45635 13.0508 8.21104 12.296C8.39885 12.1083 8.70341 12.1083 8.89122 12.296C9.0791 12.4839 9.0791 12.7884 8.89122 12.9763C8.5116 13.3559 8.5116 13.9736 8.89122 14.3532C9.0791 14.5411 9.0791 14.8456 8.89122 15.0335C8.79728 15.1273 8.67422 15.1743 8.5511 15.1743Z" fill="#62D2A2"/>
<path d="M13.4047 3.3776C13.4047 3.6431 13.1892 3.85854 12.9238 3.85854C12.6577 3.85854 12.4429 3.6431 12.4429 3.3776C12.4429 3.03004 12.3172 2.69467 12.0889 2.43298C12.2191 2.15404 12.3794 1.8911 12.5654 1.64935C12.659 1.67179 12.7462 1.72248 12.8142 1.80073C13.195 2.23742 13.4047 2.79792 13.4047 3.3776Z" fill="#41C48B"/>
<path d="M9.55836 5.67469C9.46536 5.81382 9.31273 5.88888 9.15754 5.88888C9.06586 5.88888 8.97348 5.86319 8.89142 5.80807L8.77661 5.73176C8.40467 5.48426 8.11542 5.12513 7.94873 4.71407C8.19692 4.48451 8.47267 4.28438 8.77085 4.11957C8.83435 4.44919 9.03123 4.74544 9.31017 4.93144L9.42498 5.00776C9.64554 5.15526 9.70586 5.45413 9.55836 5.67469Z" fill="#41C48B"/>
<path d="M13.0554 9.8389C12.9039 9.8389 12.7547 9.76746 12.6611 9.63384C12.292 9.10696 12.1502 8.4679 12.2617 7.83428C12.3733 7.20071 12.7249 6.64853 13.2519 6.27946C13.4693 6.1269 13.7693 6.1799 13.9217 6.39746C14.0741 6.61503 14.0213 6.91496 13.8037 7.06728C13.4873 7.28896 13.2761 7.62059 13.2091 8.00109C13.1421 8.38159 13.2273 8.7654 13.449 9.08184C13.6014 9.2994 13.5486 9.59934 13.331 9.75171C13.247 9.81059 13.1507 9.8389 13.0554 9.8389Z" fill="#41C48B"/>
<path d="M19.6503 4.85838C19.7446 5.10657 19.6189 5.38425 19.3707 5.4785C19.3149 5.49969 19.2572 5.50925 19.2008 5.50925C19.0065 5.50925 18.8237 5.39125 18.7506 5.19888C18.4749 4.47038 17.6585 4.10225 16.9313 4.37738C16.6831 4.47163 16.4048 4.34663 16.3112 4.09775C16.2169 3.84957 16.342 3.57188 16.5908 3.47763C17.0589 3.30063 17.5489 3.28269 18.0016 3.39557C18.3434 2.79469 18.8821 2.32463 19.5336 2.0675C19.6965 2.342 19.8286 2.63694 19.9261 2.94732C19.4836 3.1115 19.1149 3.41869 18.8724 3.81432C19.2129 4.07407 19.4881 4.42869 19.6503 4.85838Z" fill="#41C48B"/>
<path d="M21.2544 16.7888C21.2544 17.1536 21.2128 17.4311 21.0608 17.7613C20.7408 17.6895 20.3989 17.6609 20.1187 17.5083C20.2341 17.2844 20.2925 17.0427 20.2925 16.7888C20.2925 16.6175 20.2655 16.4501 20.2123 16.2905C20.1283 16.0385 20.2642 15.7659 20.5162 15.6819C20.7682 15.5979 21.0408 15.7339 21.1248 15.9859C21.2108 16.2443 21.2544 16.5143 21.2544 16.7888Z" fill="#62D2A2"/>
<path d="M21.2293 16.4343C20.8858 16.7079 20.5517 16.9556 20.1187 17.5083C20.257 17.5836 20.4011 17.6498 20.55 17.7063C20.6642 17.747 20.8258 17.7986 20.9578 17.8325C20.9795 17.8378 21.0011 17.8433 21.0229 17.8483C21.1749 17.518 21.2544 17.1538 21.2544 16.7889C21.2544 16.6695 21.2457 16.5513 21.2293 16.4343Z" fill="#41C48B"/>
<path d="M28.3437 21.5221C27.8935 21.8953 27.5417 22.1826 26.9992 22.2198C26.161 22.2794 25.3081 21.9466 24.7316 21.2501C24.6085 21.1007 24.5033 20.9423 24.4174 20.7769C24.359 20.6659 24.2262 20.6166 24.1076 20.6583C23.3541 20.925 22.482 20.7114 21.9426 20.0599C21.2507 19.225 21.3674 17.9879 22.2024 17.2966C22.5653 16.9959 23.0046 16.8478 23.442 16.8458C23.5844 16.8445 23.694 16.7246 23.6927 16.5829C23.687 16.0121 23.9287 15.444 24.4026 15.0515C24.6681 14.8316 24.9744 14.6955 25.2902 14.6347C25.8334 14.5301 26.5381 14.7963 27.0094 15.3658C27.4012 15.8396 27.5721 16.4448 27.4612 17.004C27.6279 17.0534 27.8489 17.1691 28.0047 17.2505C28.1406 17.3223 28.1987 17.413 28.3225 17.5086C28.4777 17.6285 28.622 17.767 28.7521 17.9241C29.7019 19.0714 29.4909 20.5724 28.3437 21.5221Z" fill="#A0E897"/>
<path d="M28.5279 21.6074C28.0777 21.9806 27.5416 22.1827 26.9991 22.2198C29.2755 17.9486 25.2886 14.635 25.2886 14.635C25.9677 14.5074 26.6951 14.7418 27.1664 15.3113C27.5583 15.7851 27.6904 16.388 27.5794 16.9472C27.7462 16.9966 27.8286 17.202 27.9844 17.2835C28.1204 17.3553 28.3317 17.2999 28.4555 17.3955C28.6106 17.5154 28.7549 17.6539 28.8851 17.811C29.8348 18.9583 29.6752 20.6576 28.5279 21.6074Z" fill="#62D2A2"/>
<path d="M28.4376 17.4488C28.2966 17.8931 28.0461 18.2394 27.6844 18.5395C27.4971 18.6941 27.2894 18.8204 27.0668 18.9127C27.0059 18.9384 26.9431 18.9499 26.8815 18.9499C26.6936 18.9499 26.5147 18.839 26.4378 18.6543C26.3351 18.4093 26.4512 18.1278 26.6962 18.0251C26.8309 17.9687 26.9572 17.8924 27.0707 17.7981C27.1864 17.7023 27.2411 17.6462 27.3188 17.5354C27.4194 17.392 27.5305 17.1868 27.5685 16.9968C27.8808 17.0899 28.1715 17.2429 28.4376 17.4488Z" fill="#62D2A2"/>
<path d="M28.1648 17.2005C27.9803 17.0936 27.7835 17.0083 27.5793 16.9472C27.5352 17.1675 27.4505 17.3604 27.3188 17.5355C27.4543 17.8608 27.536 18.2355 27.616 18.5941C28.0112 18.2903 28.3058 17.8672 28.4553 17.3955C28.3629 17.3241 28.2653 17.2589 28.1648 17.2005Z" fill="#41C48B"/>
<path d="M7.28941 19.6496C6.93478 19.7868 6.56091 19.7919 6.22297 19.6887C6.85316 15.8459 2.69922 15.0144 2.69922 15.0144C2.69922 15.0144 3.11841 14.5115 4.03166 14.4173C5.02297 14.3151 5.96447 14.8886 6.33516 15.8487C6.38903 15.9885 6.42816 16.1296 6.45316 16.2719C6.47497 16.3957 6.58272 16.4822 6.70841 16.4829C7.36253 16.4867 7.97816 16.8844 8.22759 17.5308C8.55341 18.3753 8.13334 19.3237 7.28941 19.6496Z" fill="#62D2A2"/>
</svg>
